<?xml version="1.0" encoding="utf-8"?>
<!-- Generator: Adobe Illustrator 26.0.1, SVG Export Plug-In . SVG Version: 6.00 Build 0)  -->
<svg version="1.1" id="图层_1" xmlns="http://www.w3.org/2000/svg" xmlns:xlink="http://www.w3.org/1999/xlink" x="0px" y="0px"
	 viewBox="0 0 220 30" style="enable-background:new 0 0 220 30;" xml:space="preserve">
<style type="text/css">
	.st0{fill:#3392FF;}
</style>
<g>
	<g>
		<path class="st0" d="M27.85,17.01c0.19-0.06,0.33-0.22,0.36-0.42c0.05-0.48,0.08-0.97,0.08-1.46c0-3.19-1.11-6.12-2.95-8.43
			l-3.27,3.5L10.05,23.07c-1.62,1.74-0.81,4.62,1.49,5.18c0.05,0.01,0.1,0.03,0.16,0.04c1.08,0.25,2.22-0.1,2.98-0.91l5.05-5.36
			c0.47-0.5,0.13-1.33-0.56-1.35l-3.6-0.11l8.18-2.38L27.85,17.01z"/>
		<path class="st0" d="M14.48,5.43L3.11,17.49c-0.87,0.93-1.1,2.29-0.55,3.44c0.01,0.02,0.02,0.04,0.03,0.06
			c0.95,1.97,3.57,2.39,5.06,0.79l9.32-9.98c0.47-0.5,0.13-1.32-0.56-1.34l-3.56-0.11l8.11-2.38l4.08-1.2
			c0.14-0.04,0.19-0.21,0.1-0.32c-1.87-2.23-4.43-3.84-7.37-4.5L14.48,5.43z"/>
		<path class="st0" d="M24.89,20.42l-7.52,7.98c5.64-1.1,10.02-5.7,10.79-11.44L24.89,20.42z"/>
		<path class="st0" d="M13.35,3.21l4.03-1.17c0.09-0.03,0.09-0.16-0.01-0.18c-0.84-0.16-1.71-0.25-2.6-0.25
			c-3.74,0-7.12,1.51-9.56,3.96L13.35,3.21z"/>
		<path class="st0" d="M8.76,5.69L5.2,5.58c-2.44,2.45-3.94,5.82-3.94,9.54c0,0.15,0.01,0.3,0.01,0.46l8.06-8.54
			C9.8,6.54,9.45,5.71,8.76,5.69z"/>
	</g>
</g>
<path class="st0" d="M196.35,23.09v2.05c0,0.09,0.07,0.16,0.16,0.16h2.05c0.09,0,0.16-0.07,0.16-0.16v-2.05
	c0-0.09-0.07-0.16-0.16-0.16h-2.05C196.42,22.93,196.35,23.01,196.35,23.09z"/>
<path class="st0" d="M176.53,5.21v2.05c0,0.09,0.07,0.16,0.16,0.16h13.89c0.09,0,0.16,0.07,0.16,0.16v5.95
	c0,0.09-0.07,0.16-0.16,0.16h-13.89c-0.09,0-0.16,0.07-0.16,0.16v11.3c0,0.09,0.07,0.16,0.16,0.16h15.86c0.09,0,0.16-0.07,0.16-0.16
	v-2.05c0-0.09-0.07-0.16-0.16-0.16h-13.49c-0.09,0-0.16-0.07-0.16-0.16v-6.56c0-0.09,0.07-0.16,0.16-0.16h13.89
	c0.09,0,0.16-0.07,0.16-0.16V5.21c0-0.09-0.07-0.16-0.16-0.16h-16.26C176.6,5.06,176.53,5.13,176.53,5.21z"/>
<g>
	<path class="st0" d="M143.2,21.31l2.1,3.91c0.03,0.05,0.08,0.08,0.14,0.08h2.38c0.12,0,0.2-0.13,0.14-0.23l-2.1-3.9
		c-0.03-0.05-0.08-0.08-0.14-0.08l-2.38-0.01C143.22,21.08,143.14,21.2,143.2,21.31z"/>
	<path class="st0" d="M130.51,25.3h2.38c0.06,0,0.11-0.03,0.14-0.08l2.1-3.91c0.06-0.11-0.02-0.23-0.14-0.23l-2.38,0.01
		c-0.06,0-0.11,0.03-0.14,0.08l-2.1,3.9C130.32,25.18,130.39,25.3,130.51,25.3z"/>
	<path class="st0" d="M149.85,7.21V5.16c0-0.09-0.07-0.16-0.16-0.16l-19.81,0.39c-0.09,0-0.15,0.07-0.15,0.16v2.08
		c0,0.09,0.07,0.16,0.16,0.16l5.89-0.12c0.14,0,0.21,0.17,0.11,0.27l-5.37,5.37c-0.1,0.1-0.03,0.27,0.11,0.27h4.14
		c0.14,0,0.21,0.17,0.11,0.27l-4.89,4.89c-0.1,0.1-0.03,0.27,0.11,0.27h8.34c0.09,0,0.16,0.07,0.16,0.16v3.57
		c0,0.09-0.07,0.16-0.16,0.16h-1.55c-0.09,0-0.16,0.07-0.16,0.16v2.05c0,0.09,0.07,0.16,0.16,0.16h3.91c0.09,0,0.16-0.07,0.16-0.16
		v-5.93c0-0.09,0.07-0.16,0.16-0.16h7.17c0.12,0,0.2-0.13,0.14-0.23l-1.82-3.39c-0.03-0.05-0.08-0.08-0.14-0.08l-2.38-0.01
		c-0.12,0-0.2,0.13-0.14,0.23l0.47,0.88c0.06,0.1-0.02,0.23-0.14,0.23h-8.48c-0.14,0-0.21-0.17-0.11-0.27l2.74-2.75
		c0.03-0.03,0.07-0.05,0.11-0.05h9.39c0.09,0,0.16-0.07,0.16-0.16v-2.05c0-0.09-0.07-0.16-0.16-0.16h-11.59
		c-0.14,0-0.21-0.17-0.11-0.27l3.31-3.31c0.03-0.03,0.07-0.05,0.11-0.05l10.04-0.21C149.78,7.36,149.85,7.29,149.85,7.21z"/>
</g>
<g>
	<path class="st0" d="M126.32,12.06c0.09,0,0.16-0.07,0.16-0.16V9.69V5.6c0-0.09-0.07-0.16-0.16-0.16h-12.8
		c-0.09,0-0.16,0.07-0.16,0.16v19.54c0,0.09,0.07,0.16,0.16,0.16h2.05c0.09,0,0.16-0.07,0.16-0.16V12.22c0-0.09,0.07-0.16,0.16-0.16
		H126.32z M115.89,7.81h7.99c0.09,0,0.16,0.07,0.16,0.16v1.57c0,0.09-0.07,0.16-0.16,0.16h-7.99c-0.09,0-0.16-0.07-0.16-0.16V7.97
		C115.73,7.88,115.8,7.81,115.89,7.81z"/>
	<path class="st0" d="M110.26,5.05h-1.73c-0.18,0-0.32,0.14-0.32,0.32v2.13c0,0.18-0.14,0.32-0.32,0.32h-1.29
		c-0.18,0-0.32,0.14-0.32,0.32v1.73c0,0.18,0.14,0.32,0.32,0.32h1.29c0.18,0,0.32,0.14,0.32,0.32v4.1c0,0.18-0.14,0.32-0.32,0.32
		h-1.19c-0.18,0-0.32,0.14-0.32,0.32v1.73c0,0.18,0.14,0.32,0.32,0.32h1.19c0.18,0,0.32,0.14,0.32,0.32v4.97
		c0,0.18-0.14,0.32-0.32,0.32h-1.13c-0.18,0-0.32,0.14-0.32,0.32v1.73c0,0.18,0.14,0.32,0.32,0.32h1.45v0.05h2.05
		c0.18,0,0.32-0.14,0.32-0.32V17.6c0-0.18,0.14-0.32,0.32-0.32h1.19c0.18,0,0.32-0.14,0.32-0.32v-1.73c0-0.18-0.14-0.32-0.32-0.32
		h-1.19c-0.18,0-0.32-0.14-0.32-0.32v-4.1c0-0.18,0.14-0.32,0.32-0.32h1.29c0.18,0,0.32-0.14,0.32-0.32V8.13
		c0-0.18-0.14-0.32-0.32-0.32h-1.29c-0.18,0-0.32-0.14-0.32-0.32V5.36C110.58,5.19,110.43,5.05,110.26,5.05z"/>
	<path class="st0" d="M126.41,16.93L126.41,16.93l-3.67,0c-0.09,0-0.16-0.07-0.16-0.16v-0.91c0-0.09,0.07-0.16,0.16-0.16h3.58
		c0.09,0,0.16-0.07,0.16-0.16v-2.05c0-0.09-0.07-0.16-0.16-0.16h-3.58c-0.09,0-0.16-0.07-0.16-0.16v-0.62
		c0-0.09-0.07-0.16-0.16-0.16h-2.05c-0.09,0-0.16,0.07-0.16,0.16v0.62c0,0.09-0.07,0.16-0.16,0.16h-3.67
		c-0.09,0-0.16,0.07-0.16,0.16v2.05c0,0.09,0.07,0.16,0.16,0.16h3.67c0.09,0,0.16,0.07,0.16,0.16v0.91c0,0.09-0.07,0.16-0.16,0.16
		h-3.51c-0.09,0-0.16,0.07-0.16,0.16v2.21h0v5.8c0,0.09,0.07,0.16,0.16,0.16h2.21v0h5.36v0h2.21c0.09,0,0.16-0.07,0.16-0.16v-8.17
		H126.41z M118.75,22.73v-3.28c0-0.09,0.07-0.16,0.16-0.16h5.05c0.09,0,0.16,0.07,0.16,0.16v3.28c0,0.09-0.07,0.16-0.16,0.16h-5.05
		C118.82,22.89,118.75,22.81,118.75,22.73z"/>
</g>
<g>
	<path class="st0" d="M74.45,17.5l2.76,7.7c0.02,0.06,0.08,0.1,0.15,0.1h2.18c0.11,0,0.18-0.11,0.15-0.21l-2.76-7.7
		c-0.02-0.06-0.08-0.1-0.15-0.1H74.6C74.49,17.29,74.42,17.39,74.45,17.5z"/>
	<path class="st0" d="M64.36,13.76h1.32c0.09,0,0.16-0.07,0.16-0.16v-2.06c0-0.09-0.07-0.16-0.16-0.16h-5.31
		c-0.09,0-0.16,0.07-0.16,0.16v2.06c0,0.09,0.07,0.16,0.16,0.16h1.32c0.09,0,0.16,0.07,0.16,0.16v2.03c0,0.09-0.07,0.16-0.16,0.16
		h-1.95c-0.09,0-0.16,0.07-0.16,0.16v2.06c0,0.09,0.07,0.16,0.16,0.16h1.95c0.09,0,0.16,0.07,0.16,0.16v6.52
		c0,0.09,0.07,0.16,0.16,0.16h4.32c0.09,0,0.16-0.07,0.16-0.16v-2.06c0-0.09-0.07-0.16-0.16-0.16h-1.95c-0.09,0-0.16-0.07-0.16-0.16
		v-4.15c0-0.09,0.07-0.16,0.16-0.16h1.95c0.09,0,0.16-0.07,0.16-0.16v-2.06c0-0.09-0.07-0.16-0.16-0.16h-1.95
		c-0.09,0-0.16-0.07-0.16-0.16v-2.03C64.21,13.83,64.28,13.76,64.36,13.76z"/>
	<path class="st0" d="M74.04,14.11l0.95-3.49c0.02-0.07,0.08-0.12,0.15-0.12h3.67c0.09,0,0.16-0.07,0.16-0.16V8.29
		c0-0.09-0.07-0.16-0.16-0.16h-2.94c-0.1,0-0.18-0.1-0.15-0.2l0.73-2.69c0.03-0.1-0.05-0.2-0.15-0.2l-2.13-0.01
		c-0.07,0-0.13,0.05-0.15,0.12l-0.78,2.86c-0.02,0.07-0.08,0.12-0.15,0.12h-2.1c-0.09,0-0.16-0.07-0.16-0.16v-0.6
		c0-0.09-0.07-0.16-0.16-0.16h-2.06c-0.09,0-0.16,0.07-0.16,0.16v4.2c0,0.09,0.07,0.16,0.16,0.16h2.06c0.09,0,0.16-0.07,0.16-0.16
		v-0.93c0-0.09,0.07-0.16,0.16-0.16h1.38c0.1,0,0.18,0.1,0.15,0.2l-0.95,3.49c-0.02,0.07-0.08,0.12-0.15,0.12h-3.56
		c-0.09,0-0.16,0.07-0.16,0.16v2.06c0,0.09,0.07,0.16,0.16,0.16h2.83c0.1,0,0.18,0.1,0.15,0.2l-2.24,8.24
		c-0.03,0.1,0.05,0.2,0.15,0.2h2.13c0.07,0,0.13-0.05,0.15-0.12l2.28-8.4c0.02-0.07,0.08-0.12,0.15-0.12h6.15
		c0.09,0,0.16-0.07,0.16-0.16v-2.06c0-0.09-0.07-0.16-0.16-0.16h-5.42C74.09,14.3,74.01,14.21,74.04,14.11z"/>
	<path class="st0" d="M64.96,5.45H62.6c-0.05,0-0.1,0.03-0.13,0.07l-2.79,4.53c-0.06,0.1,0.01,0.24,0.13,0.24l2.36,0.01
		c0.05,0,0.1-0.03,0.13-0.07l0.52-0.83c0.03-0.05,0.08-0.07,0.13-0.07h3.58c0.09,0,0.16-0.07,0.16-0.16V7.11
		c0-0.09-0.07-0.16-0.16-0.16H64.6c-0.12,0-0.2-0.13-0.13-0.24l0.63-1.03C65.16,5.59,65.09,5.45,64.96,5.45z"/>
</g>
<g>
	<path class="st0" d="M103.05,25.07l-2.96-6.15c-0.02-0.04-0.02-0.1,0-0.14c2.32-4.94,3.38-5.74,3.01-11.31
		c-0.01-0.08-0.08-0.15-0.16-0.15h-3.9c-0.12,0-0.2-0.13-0.14-0.24l0.8-1.4c0.06-0.11-0.02-0.24-0.14-0.24l-2.35,0.01
		c-0.06,0-0.11,0.03-0.14,0.08l-2.91,5.04c-0.06,0.11,0.02,0.24,0.14,0.24l2.36,0c0.06,0,0.11-0.03,0.14-0.08l0.56-0.97
		c0.03-0.05,0.08-0.08,0.14-0.08h3.06c0.09,0,0.16,0.07,0.16,0.16v2.02c0,0.02-0.01,0.05-0.02,0.07l-1.85,3.83
		c-0.06,0.12-0.23,0.12-0.29,0L96.74,12c-0.03-0.06-0.08-0.09-0.14-0.09h-2.26c-0.12,0-0.19,0.12-0.14,0.23l3.15,6.66
		c0.02,0.04,0.02,0.09,0,0.14l-2.96,6.15c-0.05,0.11,0.03,0.23,0.14,0.23h2.39c0.06,0,0.12-0.04,0.14-0.09L98.57,22
		c0.06-0.12,0.23-0.12,0.29,0l1.52,3.21c0.03,0.06,0.08,0.09,0.14,0.09h2.39C103.02,25.3,103.1,25.18,103.05,25.07z"/>
	<path class="st0" d="M89.33,5.06h-2.05c-0.09,0-0.16,0.07-0.16,0.16v3.13c0,0.09-0.07,0.16-0.16,0.16H83.1
		c-0.09,0-0.16,0.07-0.16,0.16v2.05c0,0.09,0.07,0.16,0.16,0.16h3.86c0.09,0,0.16,0.07,0.16,0.16v2.14c0,0.09,0.07,0.16,0.16,0.16
		h2.05c0.09,0,0.16-0.07,0.16-0.16v-2.14c0-0.09,0.07-0.16,0.16-0.16h3.86c0.09,0,0.16-0.07,0.16-0.16V8.67
		c0-0.09-0.07-0.16-0.16-0.16h-3.86c-0.09,0-0.16-0.07-0.16-0.16V5.22C89.49,5.13,89.42,5.06,89.33,5.06z"/>
	<path class="st0" d="M91.99,14.32h-2.05c-0.09,0-0.16,0.07-0.16,0.16v0.67c0,0.09-0.07,0.16-0.16,0.16H86.6
		c-0.09,0-0.16-0.07-0.16-0.16v-0.68c0-0.09-0.07-0.16-0.16-0.16h-2.05c-0.09,0-0.16,0.07-0.16,0.16v0.68
		c0,0.09-0.07,0.16-0.16,0.16h-0.86c-0.09,0-0.16,0.07-0.16,0.16v2.05c0,0.09,0.07,0.16,0.16,0.16h0.86c0.09,0,0.16,0.07,0.16,0.16
		v1.91c0,0.04,0.02,0.08,0.05,0.11c0.46,0.43,1.83,1.72,2.4,2.25c0.07,0.06,0.07,0.17,0,0.23l-2.79,2.64
		c-0.1,0.1-0.03,0.28,0.11,0.28h2.47c0.04,0,0.08-0.02,0.11-0.04l1.59-1.5c0.06-0.06,0.16-0.06,0.22,0l1.59,1.5
		c0.03,0.03,0.07,0.04,0.11,0.04h2.47c0.14,0,0.21-0.18,0.11-0.28l-2.79-2.64c-0.07-0.06-0.07-0.17,0-0.23
		c0.53-0.5,1.98-1.86,2.39-2.24c0.03-0.03,0.05-0.07,0.05-0.11v-1.92c0-0.09,0.07-0.16,0.16-0.16h1.2c0.09,0,0.16-0.07,0.16-0.16
		v-2.05c0-0.09-0.07-0.16-0.16-0.16h-1.2c-0.09,0-0.16-0.07-0.16-0.16v-0.67C92.15,14.39,92.08,14.32,91.99,14.32z M89.73,19.31
		l-1.5,1.42c-0.06,0.06-0.16,0.06-0.22,0l-1.51-1.43c-0.03-0.03-0.05-0.07-0.05-0.12v-1.35c0-0.09,0.07-0.16,0.16-0.16h3.02
		c0.09,0,0.16,0.07,0.16,0.16v1.36C89.78,19.23,89.76,19.28,89.73,19.31z"/>
	<path class="st0" d="M86.02,11.5h-2.05c-0.09,0-0.16,0.07-0.16,0.16v1.26c0,0.09,0.07,0.16,0.16,0.16h2.05
		c0.09,0,0.16-0.07,0.16-0.16v-1.26C86.18,11.58,86.11,11.5,86.02,11.5z"/>
	<path class="st0" d="M92.64,11.5h-2.05c-0.09,0-0.16,0.07-0.16,0.16v1.26c0,0.09,0.07,0.16,0.16,0.16h2.05
		c0.09,0,0.16-0.07,0.16-0.16v-1.26C92.8,11.58,92.72,11.5,92.64,11.5z"/>
	<path class="st0" d="M93.21,5.98h-1.97c-0.06,0-0.11,0.03-0.14,0.08l-0.77,1.33c-0.06,0.11,0.02,0.24,0.14,0.24h1.97
		c0.06,0,0.11-0.03,0.14-0.08l0.77-1.33C93.41,6.11,93.33,5.98,93.21,5.98z"/>
	<path class="st0" d="M86.22,7.39l-0.77-1.33c-0.03-0.05-0.08-0.08-0.14-0.08h-1.97c-0.12,0-0.2,0.13-0.14,0.24l0.76,1.31
		C84,7.58,84.05,7.61,84.1,7.61l1.98,0.02C86.21,7.63,86.29,7.5,86.22,7.39z"/>
</g>
<path class="st0" d="M48.12,8.99h8c0.09,0,0.16-0.07,0.16-0.16V6.78c0-0.09-0.07-0.16-0.16-0.16h-8.62c-0.09,0-0.16-0.07-0.16-0.16
	V5.2c0-0.09-0.07-0.16-0.16-0.16h-2.05c-0.09,0-0.16,0.07-0.16,0.16v1.26c0,0.09-0.07,0.16-0.16,0.16h-8.62
	c-0.09,0-0.16,0.07-0.16,0.16v2.05c0,0.09,0.07,0.16,0.16,0.16h8.25c0.14,0,0.21,0.17,0.11,0.27l-8.25,8.2
	c-0.1,0.1-0.03,0.27,0.11,0.27h7.06c0.14,0,0.21,0.17,0.11,0.27l-6.96,7.02c-0.1,0.1-0.03,0.27,0.11,0.27c2.99,0,13.99,0,16.39,0
	l0,0c0.31,0,1.43,0,1.76,0v-0.01L56,25.28c0.12,0,0.2-0.13,0.14-0.24l-2.48-4.25c-0.03-0.05-0.08-0.08-0.14-0.08l-2.66,0.01
	c-0.12,0-0.2,0.13-0.14,0.24l0.96,1.73c0.06,0.11-0.02,0.24-0.14,0.24h-9.05c-0.14,0-0.21-0.17-0.12-0.27l7.81-8.12
	c0.1-0.1,0.03-0.27-0.12-0.27h-2.72c-0.04,0-0.08,0.02-0.11,0.05l-0.99,1c-0.03,0.03-0.07,0.05-0.11,0.05H42.3
	c-0.14,0-0.21-0.17-0.12-0.27L48,9.04C48.03,9.01,48.08,8.99,48.12,8.99z"/>
<g>
	<path class="st0" d="M153.48,25.3h6.85c0.09,0,0.16-0.07,0.16-0.16v-2.05c0-0.09-0.07-0.16-0.16-0.16h-6.85
		c-0.09,0-0.16,0.07-0.16,0.16v2.05C153.33,25.23,153.4,25.3,153.48,25.3z"/>
	<path class="st0" d="M159.35,10.89h-1.95c-0.12,0-0.19-0.12-0.14-0.23l2.71-5.37c0.05-0.1-0.02-0.23-0.14-0.23l-2.22-0.01
		c-0.06,0-0.11,0.03-0.14,0.08l-4.19,7.9c-0.06,0.11,0.02,0.23,0.14,0.23l2.53,0l0-0.01h1.06c0.12,0,0.2,0.13,0.14,0.24l-3.92,6.79
		c-0.06,0.11,0.02,0.24,0.14,0.24h7.14c0.09,0,0.16-0.07,0.16-0.16v-2.05c0-0.09-0.07-0.16-0.16-0.16h-2.69
		c-0.12,0-0.2-0.13-0.14-0.23l3.62-6.8c0.06-0.11-0.02-0.23-0.14-0.23H159.35z"/>
	<path class="st0" d="M168.57,8.99h4.56c0.09,0,0.16-0.07,0.16-0.16V6.78c0-0.09-0.07-0.16-0.16-0.16h-4.34
		c-0.09,0-0.16-0.07-0.16-0.16V5.22c0-0.09-0.07-0.16-0.16-0.16h-2.05c-0.09,0-0.16,0.07-0.16,0.16v1.25c0,0.09-0.07,0.16-0.16,0.16
		H162c-0.09,0-0.16,0.07-0.16,0.16v2.05c0,0.09,0.07,0.16,0.16,0.16h3.46c0.12,0,0.2,0.13,0.14,0.24l-3.51,6.08h0v2.21
		c0,0.09,0.07,0.16,0.16,0.16h1.37c0.1,0,0.18,0.1,0.15,0.2l-1.88,7.18c-0.03,0.1,0.05,0.2,0.15,0.2h2.12
		c0.07,0,0.13-0.05,0.15-0.12l1.92-7.34c0.02-0.07,0.08-0.12,0.15-0.12h2.44c0.09,0,0.16,0.07,0.16,0.16v7.26
		c0,0.09,0.07,0.16,0.16,0.16h3.97c0.09,0,0.16-0.07,0.16-0.16v-2.05c0-0.09-0.07-0.16-0.16-0.16h-1.61c-0.09,0-0.16-0.07-0.16-0.16
		v-4.9c0-0.09,0.07-0.16,0.16-0.16h1.61c0.09,0,0.16-0.07,0.16-0.16v-2.21l0,0l-1.14-1.97c-0.03-0.05-0.08-0.08-0.14-0.08l-2.37,0
		c-0.12,0-0.2,0.13-0.14,0.24l0.91,1.57c0.06,0.11-0.02,0.24-0.14,0.24h-5.18c-0.12,0-0.2-0.13-0.14-0.24l3.46-6
		C168.46,9.02,168.51,8.99,168.57,8.99z"/>
</g>
<path class="st0" d="M201.96,5.22v19.92c0,0.09,0.07,0.16,0.16,0.16h16.25c0.09,0,0.16-0.07,0.16-0.16V5.22
	c0-0.09-0.07-0.16-0.16-0.16h-16.25C202.03,5.06,201.96,5.13,201.96,5.22z M216.01,22.93h-11.51c-0.09,0-0.16-0.07-0.16-0.16V7.59
	c0-0.09,0.07-0.16,0.16-0.16h11.51c0.09,0,0.16,0.07,0.16,0.16v15.19C216.17,22.86,216.1,22.93,216.01,22.93z"/>
</svg>
