<?xml version="1.0" standalone="no"?><!DOCTYPE svg PUBLIC "-//W3C//DTD SVG 1.1//EN" "http://www.w3.org/Graphics/SVG/1.1/DTD/svg11.dtd"><svg t="1651046547703" class="icon" viewBox="0 0 1024 1024" version="1.1" xmlns="http://www.w3.org/2000/svg" p-id="6526" xmlns:xlink="http://www.w3.org/1999/xlink" width="128" height="128"><defs><style type="text/css">@font-face { font-family: feedback-iconfont; src: url("//at.alicdn.com/t/font_1031158_u69w8yhxdu.woff2?t=1630033759944") format("woff2"), url("//at.alicdn.com/t/font_1031158_u69w8yhxdu.woff?t=1630033759944") format("woff"), url("//at.alicdn.com/t/font_1031158_u69w8yhxdu.ttf?t=1630033759944") format("truetype"); }
</style></defs><path d="M510.21 147.93l315.13 181.94v363.89L510.21 875.7 195.08 693.76V329.87l315.13-181.94m0-68.96c-5.52 0-11.04 1.43-15.98 4.28L147.06 283.69a31.959 31.959 0 0 0-15.98 27.68v400.87c0 11.42 6.09 21.97 15.98 27.68l347.17 200.44a31.892 31.892 0 0 0 15.98 4.28c5.52 0 11.04-1.43 15.98-4.28l347.17-200.44a31.959 31.959 0 0 0 15.98-27.68V311.38c0-11.42-6.09-21.97-15.98-27.68L526.2 83.26a31.939 31.939 0 0 0-15.99-4.29z" p-id="6527"></path><path d="M512.48 795.67c-17.68 0-32-14.33-32-32l0.02-231.36-197.13-106.48c-15.55-8.4-21.35-27.81-12.95-43.36 8.4-15.55 27.81-21.35 43.36-12.95L544.5 494.14l-0.02 269.53c0 17.67-14.33 32-32 32z" p-id="6528"></path><path d="M511.39 545.23c-10.81 0-21.36-5.48-27.38-15.4-9.17-15.11-4.36-34.79 10.75-43.96l217.86-132.26c15.11-9.17 34.79-4.36 43.96 10.75 9.17 15.11 4.36 34.79-10.75 43.96L527.97 540.58a31.863 31.863 0 0 1-16.58 4.65z" p-id="6529"></path></svg>