<?xml version="1.0" standalone="no"?><!DOCTYPE svg PUBLIC "-//W3C//DTD SVG 1.1//EN" "http://www.w3.org/Graphics/SVG/1.1/DTD/svg11.dtd"><svg t="1651046566495" class="icon" viewBox="0 0 1024 1024" version="1.1" xmlns="http://www.w3.org/2000/svg" p-id="6980" xmlns:xlink="http://www.w3.org/1999/xlink" width="128" height="128"><defs><style type="text/css">@font-face { font-family: feedback-iconfont; src: url("//at.alicdn.com/t/font_1031158_u69w8yhxdu.woff2?t=1630033759944") format("woff2"), url("//at.alicdn.com/t/font_1031158_u69w8yhxdu.woff?t=1630033759944") format("woff"), url("//at.alicdn.com/t/font_1031158_u69w8yhxdu.ttf?t=1630033759944") format("truetype"); }
</style></defs><path d="M513 678.67c-44.52 0-86.37-17.34-117.85-48.82-31.48-31.48-48.82-73.33-48.82-117.85 0-91.9 74.77-166.67 166.67-166.67S679.67 420.1 679.67 512 604.9 678.67 513 678.67z m0-269.34c-56.61 0-102.67 46.06-102.67 102.67 0 27.42 10.68 53.21 30.07 72.6 19.39 19.39 45.17 30.07 72.6 30.07 56.61 0 102.67-46.06 102.67-102.67S569.61 409.33 513 409.33zM235.58 371.86c-75.54 0-137-61.46-137-137s61.46-137 137-137 137 61.46 137 137-61.46 137-137 137z m0-210c-40.25 0-73 32.75-73 73s32.75 73 73 73 73-32.75 73-73-32.75-73-73-73zM236.1 928.03c-75.54 0-137-61.46-137-137s61.46-137 137-137 137 61.46 137 137-61.46 137-137 137z m0-210c-40.25 0-73 32.75-73 73s32.75 73 73 73 73-32.75 73-73-32.75-73-73-73zM789.87 928.03c-75.54 0-137-61.46-137-137s61.46-137 137-137 137 61.46 137 137-61.46 137-137 137z m0-210c-40.25 0-73 32.75-73 73s32.75 73 73 73 73-32.75 73-73-32.75-73-73-73zM789.87 371.86c-75.54 0-137-61.46-137-137s61.46-137 137-137 137 61.46 137 137-61.46 137-137 137z m0-210c-40.25 0-73 32.75-73 73s32.75 73 73 73 73-32.75 73-73-32.75-73-73-73z" p-id="6981"></path><path d="M268.448 709.524L407.64 571.33l45.094 45.42-139.193 138.194zM269.469 313.981l45.254-45.254L442.397 396.4l-45.254 45.254zM585.365 394.37l121.664-121.663 45.254 45.254-121.664 121.664zM584.59 629.848l45.255-45.255 131.443 131.443-45.255 45.254z" p-id="6982"></path></svg>