<?xml version="1.0" standalone="no"?><!DOCTYPE svg PUBLIC "-//W3C//DTD SVG 1.1//EN" "http://www.w3.org/Graphics/SVG/1.1/DTD/svg11.dtd"><svg t="1651046418995" class="icon" viewBox="0 0 1024 1024" version="1.1" xmlns="http://www.w3.org/2000/svg" p-id="5165" xmlns:xlink="http://www.w3.org/1999/xlink" width="128" height="128"><defs><style type="text/css">@font-face { font-family: feedback-iconfont; src: url("//at.alicdn.com/t/font_1031158_u69w8yhxdu.woff2?t=1630033759944") format("woff2"), url("//at.alicdn.com/t/font_1031158_u69w8yhxdu.woff?t=1630033759944") format("woff"), url("//at.alicdn.com/t/font_1031158_u69w8yhxdu.ttf?t=1630033759944") format("truetype"); }
</style></defs><path d="M417 162.23v255H162v-255h255m32-64H130c-17.67 0-32 14.33-32 32v319c0 17.67 14.33 32 32 32h319c17.67 0 32-14.33 32-32v-319c0-17.68-14.32-32-32-32zM417 609.29v255H162v-255h255m32-64H130c-17.67 0-32 14.33-32 32v319c0 17.67 14.33 32 32 32h319c17.67 0 32-14.33 32-32v-319c0-17.67-14.32-32-32-32zM863.64 609.29v255h-255v-255h255m32-64h-319c-17.67 0-32 14.33-32 32v319c0 17.67 14.33 32 32 32h319c17.67 0 32-14.33 32-32v-319c0-17.67-14.32-32-32-32zM719.6 176.07l129.56 129.56L719.6 435.18 590.04 305.62 719.6 176.07m0-77.26c-8.19 0-16.38 3.12-22.63 9.37L522.16 282.99c-12.5 12.5-12.5 32.76 0 45.26l174.81 174.81c6.25 6.25 14.44 9.37 22.63 9.37s16.38-3.12 22.63-9.37l174.81-174.81c12.5-12.5 12.5-32.76 0-45.26L742.22 108.18c-6.25-6.25-14.44-9.37-22.62-9.37z" p-id="5166"></path></svg>