<?xml version="1.0" standalone="no"?><!DOCTYPE svg PUBLIC "-//W3C//DTD SVG 1.1//EN" "http://www.w3.org/Graphics/SVG/1.1/DTD/svg11.dtd"><svg t="1651046396709" class="icon" viewBox="0 0 1024 1024" version="1.1" xmlns="http://www.w3.org/2000/svg" p-id="4710" xmlns:xlink="http://www.w3.org/1999/xlink" width="128" height="128"><defs><style type="text/css">@font-face { font-family: feedback-iconfont; src: url("//at.alicdn.com/t/font_1031158_u69w8yhxdu.woff2?t=1630033759944") format("woff2"), url("//at.alicdn.com/t/font_1031158_u69w8yhxdu.woff?t=1630033759944") format("woff"), url("//at.alicdn.com/t/font_1031158_u69w8yhxdu.ttf?t=1630033759944") format("truetype"); }
</style></defs><path d="M511.33 960c-60.55 0-119.32-11.87-174.65-35.27-53.43-22.6-101.41-54.94-142.6-96.14-41.19-41.19-73.54-89.17-96.14-142.6-23.4-55.33-35.27-114.09-35.27-174.65 0-60.55 11.87-119.32 35.27-174.65 22.6-53.43 54.94-101.41 96.14-142.6 41.19-41.19 89.17-73.54 142.6-96.14 55.33-23.4 114.09-35.27 174.65-35.27 17.67 0 32 14.33 32 32s-14.33 32-32 32c-212.1 0-384.66 172.56-384.66 384.66 0 212.1 172.56 384.66 384.66 384.66C723.44 896 896 723.44 896 511.33c0-17.67 14.33-32 32-32s32 14.33 32 32c0 60.56-11.87 119.31-35.27 174.65-22.6 53.43-54.94 101.41-96.14 142.6-41.19 41.19-89.17 73.54-142.6 96.14C630.65 948.13 571.89 960 511.33 960z" p-id="4711"></path><path d="M511.33 767.22c-68.35 0-132.61-26.62-180.94-74.95s-74.95-112.59-74.95-180.94 26.62-132.61 74.95-180.94 112.59-74.95 180.94-74.95c17.67 0 32 14.33 32 32s-14.33 32-32 32c-105.81 0-191.89 86.08-191.89 191.89s86.08 191.89 191.89 191.89 191.89-86.08 191.89-191.89c0-17.67 14.33-32 32-32s32 14.33 32 32c0 68.35-26.62 132.61-74.95 180.94s-112.59 74.95-180.94 74.95zM682.33 376.22h-0.02c-17.67-0.01-31.99-14.35-31.98-32.02l0.14-209.74c0.01-17.67 14.34-31.98 32-31.98h0.02c17.67 0.01 31.99 14.35 31.98 32.02l-0.14 209.74c-0.01 17.67-14.33 31.98-32 31.98z" p-id="4712"></path><path d="M511.33 543.33c-8.23 0-16.46-3.16-22.72-9.46-12.45-12.55-12.37-32.81 0.18-45.25L667.7 311.11h219.56c17.67 0 32 14.33 32 32s-14.33 32-32 32H694.07l-160.2 158.94c-6.24 6.19-14.39 9.28-22.54 9.28z" p-id="4713"></path></svg>