<?xml version="1.0" standalone="no"?><!DOCTYPE svg PUBLIC "-//W3C//DTD SVG 1.1//EN" "http://www.w3.org/Graphics/SVG/1.1/DTD/svg11.dtd"><svg t="1651046773197" class="icon" viewBox="0 0 1024 1024" version="1.1" xmlns="http://www.w3.org/2000/svg" p-id="7131" xmlns:xlink="http://www.w3.org/1999/xlink" width="128" height="128"><defs><style type="text/css">@font-face { font-family: feedback-iconfont; src: url("//at.alicdn.com/t/font_1031158_u69w8yhxdu.woff2?t=1630033759944") format("woff2"), url("//at.alicdn.com/t/font_1031158_u69w8yhxdu.woff?t=1630033759944") format("woff"), url("//at.alicdn.com/t/font_1031158_u69w8yhxdu.ttf?t=1630033759944") format("truetype"); }
</style></defs><path d="M510.35 129.37c46.01 0 92.32 4.01 137.65 11.93l178.34 31.15v510.71L510.39 896.03 194.36 682.66v-510.2l178.34-31.15a802 802 0 0 1 137.65-11.94m0-64c-49.74 0-99.48 4.3-148.66 12.89l-204.83 35.78c-15.32 2.68-26.49 15.97-26.49 31.52v554.1c0 10.63 5.28 20.57 14.09 26.52l330.12 222.89a63.882 63.882 0 0 0 35.81 10.96c12.47 0 24.95-3.64 35.76-10.92l330.07-222.37a31.992 31.992 0 0 0 14.12-26.54V145.56c0-15.55-11.18-28.85-26.49-31.52L659.01 78.26a864.006 864.006 0 0 0-148.66-12.89z" p-id="7132"></path><path d="M662.17 409.18h-88.82l60.23-57.42c12.79-12.2 13.27-32.45 1.08-45.24s-32.45-13.27-45.24-1.08l-77 73.42-74.8-75.41c-12.45-12.55-32.71-12.63-45.25-0.18-12.55 12.45-12.63 32.71-0.19 45.25l60.17 60.66h-88.12c-17.67 0-32 14.33-32 32s14.33 32 32 32H481.2v54.22h-64.36c-17.67 0-32 14.33-32 32s14.33 32 32 32h64.36v61.82c0 17.67 14.33 32 32 32s32-14.33 32-32V591.4h64.36c17.67 0 32-14.33 32-32s-14.33-32-32-32H545.2v-54.22h116.98c17.67 0 32-14.33 32-32-0.01-17.68-14.33-32-32.01-32z" p-id="7133"></path></svg>