<?xml version="1.0" standalone="no"?><!DOCTYPE svg PUBLIC "-//W3C//DTD SVG 1.1//EN" "http://www.w3.org/Graphics/SVG/1.1/DTD/svg11.dtd"><svg t="1651046376112" class="icon" viewBox="0 0 1024 1024" version="1.1" xmlns="http://www.w3.org/2000/svg" p-id="4407" xmlns:xlink="http://www.w3.org/1999/xlink" width="128" height="128"><defs><style type="text/css">@font-face { font-family: feedback-iconfont; src: url("//at.alicdn.com/t/font_1031158_u69w8yhxdu.woff2?t=1630033759944") format("woff2"), url("//at.alicdn.com/t/font_1031158_u69w8yhxdu.woff?t=1630033759944") format("woff"), url("//at.alicdn.com/t/font_1031158_u69w8yhxdu.ttf?t=1630033759944") format("truetype"); }
</style></defs><path d="M724.48 162.23l127.01 231.11-339.9 431.17-338.87-434.3 124.87-227.98h426.89m18.93-64H278.63a32.02 32.02 0 0 0-28.07 16.63L106.47 377.93a31.997 31.997 0 0 0 2.84 35.06l376.92 483.06c6.4 8.21 15.82 12.31 25.23 12.31 9.36 0 18.72-4.06 25.13-12.19l378.28-479.86a32.002 32.002 0 0 0 2.91-35.22L771.45 114.82a31.979 31.979 0 0 0-28.04-16.59z" p-id="4408"></path><path d="M512.69 673.15c-0.57 0-1.15-0.01-1.72-0.02a63.931 63.931 0 0 1-48-23.67L310.4 461.32c-11.13-13.73-9.03-33.88 4.7-45.01 13.73-11.13 33.88-9.03 45.01 4.7l152.57 188.15 158.36-175.22c11.85-13.11 32.08-14.13 45.2-2.28 13.11 11.85 14.13 32.09 2.28 45.2L560.16 652.07a63.93 63.93 0 0 1-47.47 21.08z" p-id="4409"></path></svg>