<?xml version="1.0" standalone="no"?><!DOCTYPE svg PUBLIC "-//W3C//DTD SVG 1.1//EN" "http://www.w3.org/Graphics/SVG/1.1/DTD/svg11.dtd"><svg t="1651046431669" class="icon" viewBox="0 0 1024 1024" version="1.1" xmlns="http://www.w3.org/2000/svg" p-id="5466" xmlns:xlink="http://www.w3.org/1999/xlink" width="128" height="128"><defs><style type="text/css">@font-face { font-family: feedback-iconfont; src: url("//at.alicdn.com/t/font_1031158_u69w8yhxdu.woff2?t=1630033759944") format("woff2"), url("//at.alicdn.com/t/font_1031158_u69w8yhxdu.woff?t=1630033759944") format("woff"), url("//at.alicdn.com/t/font_1031158_u69w8yhxdu.ttf?t=1630033759944") format("truetype"); }
</style></defs><path d="M510.35 129.37c46.01 0 92.32 4.01 137.65 11.93l178.34 31.15v510.71L510.39 896.03 194.36 682.66v-510.2l178.34-31.15a802 802 0 0 1 137.65-11.94m0-64c-49.74 0-99.48 4.3-148.66 12.89l-204.83 35.78c-15.32 2.68-26.49 15.97-26.49 31.52v554.1c0 10.63 5.28 20.57 14.09 26.52l330.12 222.89a63.882 63.882 0 0 0 35.81 10.96c12.47 0 24.95-3.64 35.76-10.92l330.07-222.37a31.992 31.992 0 0 0 14.12-26.54V145.56c0-15.55-11.18-28.85-26.49-31.52L659.01 78.26a864.006 864.006 0 0 0-148.66-12.89z" p-id="5467"></path><path d="M480.57 599.9c-15.82 0-31.67-5.78-43.97-17.43l-100.27-94.9c-12.84-12.15-13.39-32.4-1.25-45.24 12.15-12.84 32.4-13.39 45.24-1.25l100.27 94.9L680.33 329.5c12.29-12.7 32.55-13.04 45.25-0.75 12.7 12.29 13.04 32.55 0.75 45.25L526.6 580.48c-12.49 12.92-29.25 19.42-46.03 19.42z" p-id="5468"></path></svg>