<?xml version="1.0" standalone="no"?><!DOCTYPE svg PUBLIC "-//W3C//DTD SVG 1.1//EN" "http://www.w3.org/Graphics/SVG/1.1/DTD/svg11.dtd"><svg t="1655281816763" class="icon" viewBox="0 0 1024 1024" version="1.1" xmlns="http://www.w3.org/2000/svg" p-id="3570" xmlns:xlink="http://www.w3.org/1999/xlink" width="128" height="128"><defs><style type="text/css">@font-face { font-family: feedback-iconfont; src: url("//at.alicdn.com/t/font_1031158_u69w8yhxdu.woff2?t=1630033759944") format("woff2"), url("//at.alicdn.com/t/font_1031158_u69w8yhxdu.woff?t=1630033759944") format("woff"), url("//at.alicdn.com/t/font_1031158_u69w8yhxdu.ttf?t=1630033759944") format("truetype"); }
</style></defs><path d="M891.64 924.41H158.69c-33.81 0-61.32-27.51-61.32-61.32V130.14c0-17.67 14.33-32 32-32s32 14.33 32 32v730.27h730.27c17.67 0 32 14.33 32 32s-14.33 32-32 32z" p-id="3571"></path><path d="M315.22 493.94c-17.67 0-32 14.33-32 32v158.5c0 17.67 14.33 32 32 32s32-14.33 32-32v-158.5c0-17.67-14.32-32-32-32zM511.28 407.55c-17.67 0-32 14.33-32 32v244.89c0 17.67 14.33 32 32 32s32-14.33 32-32V439.55c0-17.67-14.33-32-32-32zM707.33 283.78c-17.67 0-32 14.33-32 32v368.67c0 17.67 14.33 32 32 32s32-14.33 32-32V315.78c0-17.68-14.32-32-32-32z" p-id="3572"></path></svg>