<?xml version="1.0" encoding="utf-8"?>
<!-- Generator: Adobe Illustrator 26.0.1, SVG Export Plug-In . SVG Version: 6.00 Build 0)  -->
<svg version="1.1" id="图层_1" xmlns="http://www.w3.org/2000/svg" xmlns:xlink="http://www.w3.org/1999/xlink" x="0px" y="0px"
	 viewBox="0 0 1024 1024" style="enable-background:new 0 0 1024 1024;" xml:space="preserve">
<style type="text/css">
	.st0{opacity:0;}
</style>
<g>
	<rect x="-0.6" class="st0" width="1024" height="1024"/>
	<path d="M772.9,727.4l-18.7-109.2c0-0.1,0-0.2,0.1-0.3l150-146.2c17.2-16.8,23.5-40.7,16.9-64c-6.8-23.8-26-41.9-50.2-47.2
		l-1.1-0.3l-208.5-30.3l-1.2-0.2l-91.7-185.9c-10.9-22.1-33-35.8-57.6-35.8c0,0,0,0,0,0c-24.6,0-46.7,13.7-57.6,35.8l-87.1,176.6
		L190.1,144.6c-12.5-12.5-32.8-12.5-45.3,0s-12.5,32.8,0,45.3l151.3,151.3L152.8,362c-24.4,3.5-44.3,20.3-51.9,43.8
		s-1.4,48.7,16.3,65.9l150,146.2c0.1,0.1,0.1,0.2,0.1,0.3l-35.4,206.5c-4.2,24.3,5.6,48.4,25.6,62.9c11.3,8.2,24.5,12.3,37.7,12.3
		c10.2,0,20.5-2.5,30-7.5l185.4-97.5c0.1,0,0.2,0,0.3,0l185.4,97.5c21.8,11.5,47.8,9.6,67.7-4.9c17-12.3,26.6-31.6,26.5-52
		l72.6,72.6c6.2,6.2,14.4,9.4,22.6,9.4c8.2,0,16.4-3.1,22.6-9.4c12.5-12.5,12.5-32.8,0-45.3L772.9,727.4z M417.7,360.1l92.7-187.9
		c0-0.1,0.1-0.1,0.1-0.1c0.1,0,0.2,0,0.4,0c0,0,0,0.1,0.1,0.1l92.7,187.9c10,20.2,29.6,33,50.7,33.5l203.3,29.5c1.7,0.7,2,2.2,2,2.6
		c0,0-0.1,0.1-0.1,0.1l-150,146.2c-15.2,14.8-22.1,36-18.5,56.9l3.4,20L413.3,367.8C414.9,365.3,416.4,362.8,417.7,360.1z
		 M726.5,835.5c0,0.1,0,0.1,0,0.2c-0.1,0.1-0.2,0.2-0.3,0.2c0,0-0.1,0-0.1-0.1l-185.4-97.5c-9.4-4.9-19.6-7.4-29.9-7.4
		c-10.3,0-20.5,2.5-29.9,7.4l-185.4,97.5c-0.1,0-0.1,0.1-0.1,0.1c-0.1,0-0.2-0.1-0.3-0.2c0,0,0-0.1,0-0.2L330.4,629
		c3.6-20.9-3.3-42.1-18.5-56.9l-150-146.2c0,0-0.1-0.1-0.1-0.1c0-0.1,0.1-0.2,0.1-0.3c0,0,0.1,0,0.2,0l190.6-27.7l360.6,360.6
		L726.5,835.5z"/>
</g>
</svg>
