<?xml version="1.0" standalone="no"?><!DOCTYPE svg PUBLIC "-//W3C//DTD SVG 1.1//EN" "http://www.w3.org/Graphics/SVG/1.1/DTD/svg11.dtd"><svg t="1663051413622" class="icon" viewBox="0 0 1024 1024" version="1.1" xmlns="http://www.w3.org/2000/svg" p-id="6537" xmlns:xlink="http://www.w3.org/1999/xlink" width="128" height="128"><path d="M896 927.2H127.5c-35.3 0-64-28.7-64-64V162.8c0-35.3 28.7-64 64-64H896c35.3 0 64 28.7 64 64v700.4c0 35.3-28.7 64-64 64zM127.5 162.8v700.4H896V162.8H127.5z" p-id="6538"></path><path d="M237 647.4c-7.8 0-15.6-2.8-21.7-8.5-13-12-13.7-32.3-1.7-45.2l161-173.7c11.8-12.7 28.4-20.2 45.7-20.5 17.3-0.3 34.2 6.5 46.5 18.7L617 568.4l147.8-171.9c11.5-13.4 31.7-14.9 45.1-3.4 13.4 11.5 14.9 31.7 3.4 45.1L665.5 610.1c-11.6 13.5-28.4 21.6-46.1 22.2-17.7 0.7-35.1-6.1-47.7-18.7L421.5 463.4l-161 173.7c-6.3 6.9-14.9 10.3-23.5 10.3z" p-id="6539"></path></svg>