<svg t="1663234932295" class="icon" viewBox="0 0 1024 1024" version="1.1" xmlns="http://www.w3.org/2000/svg" p-id="3583" width="200" height="200"><path d="M896 927.2H127.5c-35.3 0-64-28.7-64-64V162.8c0-35.3 28.7-64 64-64H896c35.3 0 64 28.7 64 64v700.4c0 35.3-28.7 64-64 64zM127.5 162.8v700.4H896V162.8H127.5z" p-id="3584" fill="#cdcdcd"></path><path d="M609.4 380.2l50.5 91.8-147.4 186.9-147.1-188.5 49.4-90.2h194.6m27.7-64h-250c-6.3 0-12.1 3.4-15.1 8.9l-77.5 141.5c-3.3 6-2.7 13.4 1.5 18.9l202.7 259.8c3.4 4.4 8.5 6.6 13.6 6.6 5 0 10.1-2.2 13.5-6.6l203.5-258.1c4.3-5.4 4.9-12.9 1.6-18.9l-78.7-143.2c-3.1-5.5-8.8-8.9-15.1-8.9z" p-id="3585" fill="#cdcdcd"></path></svg>