<?xml version="1.0" standalone="no"?><!DOCTYPE svg PUBLIC "-//W3C//DTD SVG 1.1//EN" "http://www.w3.org/Graphics/SVG/1.1/DTD/svg11.dtd"><svg t="1662366156441" class="icon" viewBox="0 0 1024 1024" version="1.1" xmlns="http://www.w3.org/2000/svg" p-id="3709" xmlns:xlink="http://www.w3.org/1999/xlink" width="128" height="128"><path d="M511.33 127.8c51.87 0 102.15 10.14 149.45 30.15 45.72 19.34 86.79 47.03 122.08 82.32 35.29 35.29 62.98 76.36 82.32 122.08 20.01 47.3 30.15 97.58 30.15 149.45s-10.14 102.15-30.15 149.45c-19.34 45.72-47.03 86.79-82.32 122.08-35.29 35.29-76.36 62.98-122.08 82.32-47.3 20.01-97.58 30.15-149.45 30.15s-102.15-10.14-149.45-30.15c-45.72-19.34-86.79-47.03-122.08-82.32-35.29-35.29-62.98-76.36-82.32-122.08-20.01-47.3-30.15-97.58-30.15-149.45s10.14-102.15 30.15-149.45c19.34-45.72 47.03-86.79 82.32-122.08s76.36-62.98 122.08-82.32c47.3-20.01 97.59-30.15 149.45-30.15m0-64c-247.42 0-448 200.58-448 448s200.58 448 448 448 448-200.58 448-448-200.57-448-448-448z" p-id="3710"></path><path d="M677.17 707.9c-8.16 0-16.31-3.1-22.56-9.3-12.54-12.46-12.6-32.72-0.14-45.25 37.67-37.9 58.41-88.21 58.41-141.65 0-11.51-0.98-23.04-2.91-34.27-2.99-17.42 8.71-33.96 26.13-36.95 17.42-2.99 33.96 8.71 36.95 26.13 2.54 14.8 3.83 29.97 3.83 45.09 0 70.46-27.35 136.79-77.02 186.77-6.24 6.28-14.47 9.43-22.69 9.43zM347.2 707.42c-8.19 0-16.38-3.12-22.63-9.37-50.04-50.04-77.6-116.58-77.6-187.35s27.56-137.31 77.6-187.35 116.58-77.6 187.36-77.6c15.79 0 31.62 1.4 47.06 4.17 17.4 3.12 28.97 19.75 25.85 37.15-3.12 17.4-19.75 28.97-37.15 25.85-11.71-2.1-23.74-3.17-35.75-3.17-110.81 0-200.96 90.15-200.96 200.96 0 53.68 20.9 104.14 58.86 142.1 12.5 12.5 12.5 32.76 0 45.25-6.26 6.24-14.45 9.36-22.64 9.36z" p-id="3711"></path><path d="M699.8 323.2c-12.5-12.5-32.76-12.5-45.25 0l-88.17 88.17c-16.32-9.07-35.08-14.24-55.04-14.24-62.68 0-113.67 50.99-113.67 113.67s50.99 113.67 113.67 113.67S625 573.47 625 510.8c0-19.5-4.94-37.87-13.62-53.92l88.42-88.42c12.5-12.5 12.5-32.76 0-45.26zM511.33 560.46c-27.39 0-49.67-22.28-49.67-49.67s22.28-49.67 49.67-49.67S561 483.4 561 510.79s-22.28 49.67-49.67 49.67z" p-id="3712"></path></svg>