<?xml version="1.0" standalone="no"?><!DOCTYPE svg PUBLIC "-//W3C//DTD SVG 1.1//EN" "http://www.w3.org/Graphics/SVG/1.1/DTD/svg11.dtd"><svg t="1678350061601" class="icon" viewBox="0 0 1170 1024" version="1.1" xmlns="http://www.w3.org/2000/svg" p-id="8173" xmlns:xlink="http://www.w3.org/1999/xlink" width="146.25" height="128"><path d="M987.428571 0h-804.571428C80.457143 0 0 80.457143 0 182.857143v512C0 797.257143 80.457143 877.714286 182.857143 877.714286h804.571428c102.4 0 182.857143-80.457143 182.857143-182.857143v-512C1170.285714 80.457143 1089.828571 0 987.428571 0zM1097.142857 694.857143c0 58.514286-51.2 109.714286-109.714286 109.714286h-804.571428C124.342857 804.571429 73.142857 753.371429 73.142857 694.857143v-512C73.142857 124.342857 124.342857 73.142857 182.857143 73.142857h804.571428c58.514286 0 109.714286 51.2 109.714286 109.714286v512zM914.285714 950.857143h-658.285714c-21.942857 0-36.571429 14.628571-36.571429 36.571428s14.628571 36.571429 36.571429 36.571429h658.285714c21.942857 0 36.571429-14.628571 36.571429-36.571429s-14.628571-36.571429-36.571429-36.571428z" p-id="8174"></path><path d="M256 438.857143c-21.942857 0-36.571429 14.628571-36.571429 36.571428v219.428572c0 21.942857 14.628571 36.571429 36.571429 36.571428s36.571429-14.628571 36.571429-36.571428v-219.428572c0-21.942857-14.628571-36.571429-36.571429-36.571428zM475.428571 219.428571c-21.942857 0-36.571429 14.628571-36.571428 36.571429v438.857143c0 21.942857 14.628571 36.571429 36.571428 36.571428s36.571429-14.628571 36.571429-36.571428v-438.857143c0-21.942857-14.628571-36.571429-36.571429-36.571429zM694.857143 512c-21.942857 0-36.571429 14.628571-36.571429 36.571429v146.285714c0 21.942857 14.628571 36.571429 36.571429 36.571428s36.571429-14.628571 36.571428-36.571428v-146.285714c0-21.942857-14.628571-36.571429-36.571428-36.571429zM914.285714 292.571429c-21.942857 0-36.571429 14.628571-36.571428 36.571428v365.714286c0 21.942857 14.628571 36.571429 36.571428 36.571428s36.571429-14.628571 36.571429-36.571428v-365.714286c0-21.942857-14.628571-36.571429-36.571429-36.571428z" p-id="8175"></path></svg>