<svg t="1653979930058" class="icon" viewBox="0 0 1024 1024" version="1.1" xmlns="http://www.w3.org/2000/svg" p-id="3850" width="200" height="200"><path d="M748 258.33V865H276V258.33h472m32-64H244c-17.67 0-32 14.33-32 32V897c0 17.67 14.33 32 32 32h536c17.67 0 32-14.33 32-32V226.33c0-17.67-14.33-32-32-32z" p-id="3851" fill="#606266"></path><path d="M895 194.33H127c-16.57 0-30 13.43-30 30s13.43 30 30 30h768c16.57 0 30-13.43 30-30s-13.43-30-30-30z" p-id="3852" fill="#606266"></path><path d="M330.89 240.39l-48.77-41.44L376.98 87.3c11.21-13.2 29.17-21.08 48.04-21.08h177.73c19.32 0 37.54 8.19 48.73 21.9l90.82 111.31-49.59 40.46-89.46-109.64c-0.15-0.02-0.31-0.02-0.5-0.02H425.02c-0.21 0-0.39 0.01-0.56 0.03l-93.57 110.13zM411.79 746.67c-17.67 0-32-14.33-32-32v-306c0-17.67 14.33-32 32-32s32 14.33 32 32v306c0 17.67-14.33 32-32 32zM614.46 746.67c-17.67 0-32-14.33-32-32v-306c0-17.67 14.33-32 32-32s32 14.33 32 32v306c0 17.67-14.33 32-32 32z" p-id="3853" fill="#606266"></path></svg>