<svg t="1653979637808" class="icon" viewBox="0 0 1024 1024" version="1.1" xmlns="http://www.w3.org/2000/svg" p-id="3607" width="200" height="200"><path d="M511.3 129.3c51.7 0 101.8 10.1 148.9 30 45.5 19.3 86.5 46.9 121.6 82 35.2 35.2 62.7 76.1 82 121.6 19.9 47.1 30 97.2 30 148.9s-10.1 101.8-30 148.9c-19.3 45.5-46.9 86.5-82 121.6-35.2 35.2-76.1 62.7-121.6 82-47.1 19.9-97.2 30-148.9 30s-101.8-10.1-148.9-30c-45.5-19.3-86.5-46.9-121.6-82-35.2-35.2-62.7-76.1-82-121.6-19.9-47.1-30-97.2-30-148.9s10.1-101.8 30-148.9c19.3-45.5 46.9-86.5 82-121.6 35.2-35.2 76.1-62.7 121.6-82 47.2-19.9 97.3-30 148.9-30m0-64c-246.6 0-446.5 199.9-446.5 446.5s199.9 446.5 446.5 446.5 446.5-199.9 446.5-446.5S757.9 65.3 511.3 65.3z" p-id="3608" fill="#606266"></path><path d="M674.3 718.3c-8.2 0-16.4-3.1-22.7-9.4L498.5 555.3c-12-12-18.9-28.6-18.9-45.6l0.6-249.3c0-17.6 14.4-31.9 32-31.9h0.1c17.7 0 32 14.4 31.9 32.1l-0.6 249.4 0.1 0.1L697 663.7c12.5 12.5 12.5 32.8-0.1 45.3-6.2 6.2-14.4 9.3-22.6 9.3z" p-id="3609" fill="#606266"></path></svg>