<?xml version="1.0" standalone="no"?><!DOCTYPE svg PUBLIC "-//W3C//DTD SVG 1.1//EN" "http://www.w3.org/Graphics/SVG/1.1/DTD/svg11.dtd"><svg t="1650869703759" class="icon" viewBox="0 0 1024 1024" version="1.1" xmlns="http://www.w3.org/2000/svg" p-id="2351" xmlns:xlink="http://www.w3.org/1999/xlink" width="128" height="128"><defs><style type="text/css">@font-face { font-family: feedback-iconfont; src: url("//at.alicdn.com/t/font_1031158_u69w8yhxdu.woff2?t=1630033759944") format("woff2"), url("//at.alicdn.com/t/font_1031158_u69w8yhxdu.woff?t=1630033759944") format("woff"), url("//at.alicdn.com/t/font_1031158_u69w8yhxdu.ttf?t=1630033759944") format("truetype"); }
</style></defs><path d="M723.32 539.37c-12.5-12.5-32.76-12.5-45.25 0L544 673.43v-543.8c0-17.35-14.06-31.41-31.41-31.41h-1.19c-17.35 0-31.41 14.06-31.41 31.41v544.11L351.93 545.68c-12.5-12.5-32.76-12.5-45.25 0-12.5 12.5-12.5 32.76 0 45.25l160.3 160.3c11.98 11.98 27.92 18.58 44.87 18.58 16.95 0 32.88-6.6 44.87-18.58l166.61-166.61c12.49-12.5 12.49-32.76-0.01-45.25z" p-id="2352"></path><path d="M863.09 928.41h-701.5c-34.64 0-62.81-28.18-62.81-62.81V513.22c0-17.67 14.33-32 32-32s32 14.33 32 32V864.4h700.31c0.4 0 0.73-0.33 0.73-0.73V513.22c0-17.67 14.33-32 32-32s32 14.33 32 32v350.46c-0.01 35.69-29.04 64.73-64.73 64.73z" p-id="2353"></path></svg>