<?xml version="1.0" standalone="no"?><!DOCTYPE svg PUBLIC "-//W3C//DTD SVG 1.1//EN" "http://www.w3.org/Graphics/SVG/1.1/DTD/svg11.dtd"><svg t="1650793822094" class="icon" viewBox="0 0 1024 1024" version="1.1" xmlns="http://www.w3.org/2000/svg" p-id="2454" xmlns:xlink="http://www.w3.org/1999/xlink" width="128" height="128"><defs><style type="text/css">@font-face { font-family: feedback-iconfont; src: url("//at.alicdn.com/t/font_1031158_u69w8yhxdu.woff2?t=1630033759944") format("woff2"), url("//at.alicdn.com/t/font_1031158_u69w8yhxdu.woff?t=1630033759944") format("woff"), url("//at.alicdn.com/t/font_1031158_u69w8yhxdu.ttf?t=1630033759944") format("truetype"); }
</style></defs><path d="M896 928.22H130c-17.67 0-32-14.33-32-32s14.33-32 32-32h766c17.67 0 32 14.33 32 32s-14.33 32-32 32zM278.79 766.87c-2.54 0-5.12-0.15-7.72-0.46l-80.27-1-2.33-0.37c-31.11-5-57.44-31.21-62.6-62.32l-0.42-2.51-0.45-79.89c-2.25-18.49 3.46-36 15.87-48.42l450.08-450.08c12.44-12.44 30.26-18.2 48.89-15.81 15.84 2.03 31.2 9.78 43.24 21.83l80.41 80.41c12.04 12.04 19.8 27.4 21.83 43.24 2.39 18.63-3.37 36.45-15.81 48.89L319.37 750.52c-10.63 10.63-25.03 16.35-40.58 16.35z m-81.47-65.38l78.88 0.98 0.61 0.1 444.55-444.55c-0.49-1.19-1.43-2.82-3.13-4.51l-80.41-80.41c-1.7-1.7-3.33-2.63-4.51-3.13L188.84 614.44l0.14 0.83 0.44 78.4c1.26 3.15 4.77 6.63 7.9 7.82z" p-id="2455"></path></svg>