<?xml version="1.0" standalone="no"?><!DOCTYPE svg PUBLIC "-//W3C//DTD SVG 1.1//EN" "http://www.w3.org/Graphics/SVG/1.1/DTD/svg11.dtd"><svg t="1660277837403" class="icon" viewBox="0 0 1024 1024" version="1.1" xmlns="http://www.w3.org/2000/svg" p-id="3491" xmlns:xlink="http://www.w3.org/1999/xlink" width="128" height="128"><defs><style type="text/css">@font-face { font-family: feedback-iconfont; src: url("//at.alicdn.com/t/font_1031158_u69w8yhxdu.woff2?t=1630033759944") format("woff2"), url("//at.alicdn.com/t/font_1031158_u69w8yhxdu.woff?t=1630033759944") format("woff"), url("//at.alicdn.com/t/font_1031158_u69w8yhxdu.ttf?t=1630033759944") format("truetype"); }
</style></defs><path d="M801.4 636.7c67.3 0 122-54.7 122-122s-54.7-122-122-122c-55.3 0-102.1 37-117 87.5l-140.7 0.9L716 310.4c22 21.6 52.2 34.9 85.4 34.9 67.3 0 122-54.7 122-122s-54.7-122-122-122-122 54.7-122 122c0 10.2 1.3 20.1 3.6 29.6L452.5 481.2H339.7C326 428.8 278.3 390 221.6 390c-67.3 0-122 54.7-122 122s54.7 122 122 122c55.8 0 102.9-37.6 117.4-88.8h111.3l233 228.4c-2.5 9.8-3.9 20-3.9 30.5 0 67.3 54.7 122 122 122s122-54.7 122-122-54.7-122-122-122c-33 0-62.9 13.1-84.9 34.4L541.6 545.1l141.4-0.9c13.2 53.1 61.3 92.5 118.4 92.5z m0-471.4c32 0 58 26 58 58s-26 58-58 58-58-26-58-58 26-58 58-58zM221.6 570c-32 0-58-26-58-58s26-58 58-58 58 26 58 58-26 58-58 58z m579.8 176.2c32 0 58 26 58 58s-26 58-58 58-58-26-58-58 26-58 58-58z m0-289.5c32 0 58 26 58 58s-26 58-58 58-58-26-58-58c0-31.9 26-58 58-58z" p-id="3492"></path></svg>