<?xml version="1.0" standalone="no"?><!DOCTYPE svg PUBLIC "-//W3C//DTD SVG 1.1//EN" "http://www.w3.org/Graphics/SVG/1.1/DTD/svg11.dtd"><svg t="1650869461880" class="icon" viewBox="0 0 1024 1024" version="1.1" xmlns="http://www.w3.org/2000/svg" p-id="2060" xmlns:xlink="http://www.w3.org/1999/xlink" width="128" height="128"><defs><style type="text/css">@font-face { font-family: feedback-iconfont; src: url("//at.alicdn.com/t/font_1031158_u69w8yhxdu.woff2?t=1630033759944") format("woff2"), url("//at.alicdn.com/t/font_1031158_u69w8yhxdu.woff?t=1630033759944") format("woff"), url("//at.alicdn.com/t/font_1031158_u69w8yhxdu.ttf?t=1630033759944") format("truetype"); }
</style></defs><path d="M830.69 163.23L608.41 465.34l-0.97 1.32-0.9 1.37c-10.38 15.73-15.86 34-15.86 52.85V840l-156.42-84.52-0.02-232.74a95.68 95.68 0 0 0-15.93-52.94l-0.83-1.26-0.89-1.22L194.1 163.23h636.59m63.36-64h-763.1c-25.49 0-40.74 28.36-26.67 49.62L364.93 505.1a31.988 31.988 0 0 1 5.31 17.64l0.02 251.88c0 12.37 7.14 23.63 18.32 28.91l220.46 119.12c4.5 2.12 9.14 3.1 13.66 3.1 16.81 0 31.98-13.53 31.98-32.02V520.88c0-6.26 1.84-12.38 5.28-17.61l260.79-354.45c14.02-21.26-1.23-49.59-26.7-49.59z" p-id="2061"></path></svg>