<?xml version="1.0" standalone="no"?><!DOCTYPE svg PUBLIC "-//W3C//DTD SVG 1.1//EN" "http://www.w3.org/Graphics/SVG/1.1/DTD/svg11.dtd"><svg t="1667543686904" class="icon" viewBox="0 0 1024 1024" version="1.1" xmlns="http://www.w3.org/2000/svg" p-id="3938" xmlns:xlink="http://www.w3.org/1999/xlink" width="64" height="64"><path d="M336.1 927.4H162.3c-35.3 0-64-28.7-64-64V686.7c0-17.7 14.3-32 32-32s32 14.3 32 32v176.7h173.8c17.7 0 32 14.3 32 32s-14.3 32-32 32zM866.3 927.4H688.9c-17.7 0-32-14.3-32-32s14.3-32 32-32h177.4v-176c0-17.7 14.3-32 32-32s32 14.3 32 32v176c0 35.2-28.7 64-64 64zM898.3 370.3c-17.7 0-32-14.3-32-32v-179H693.2c-17.7 0-32-14.3-32-32s14.3-32 32-32h173.1c35.3 0 64 28.7 64 64v179c0 17.7-14.3 32-32 32zM130.3 371.3c-17.7 0-32-14.3-32-32v-180c0-35.3 28.7-64 64-64h173.8c17.7 0 32 14.3 32 32s-14.3 32-32 32H162.3v180c0 17.7-14.3 32-32 32z" p-id="3939"></path></svg>