<?xml version="1.0" standalone="no"?><!DOCTYPE svg PUBLIC "-//W3C//DTD SVG 1.1//EN" "http://www.w3.org/Graphics/SVG/1.1/DTD/svg11.dtd"><svg t="1655281885346" class="icon" viewBox="0 0 1024 1024" version="1.1" xmlns="http://www.w3.org/2000/svg" p-id="3117" xmlns:xlink="http://www.w3.org/1999/xlink" width="128" height="128"><defs><style type="text/css">@font-face { font-family: feedback-iconfont; src: url("//at.alicdn.com/t/font_1031158_u69w8yhxdu.woff2?t=1630033759944") format("woff2"), url("//at.alicdn.com/t/font_1031158_u69w8yhxdu.woff?t=1630033759944") format("woff"), url("//at.alicdn.com/t/font_1031158_u69w8yhxdu.ttf?t=1630033759944") format("truetype"); }
</style></defs><path d="M863 161v702H161V161h702m32-64H129c-17.7 0-32 14.3-32 32v766c0 17.7 14.3 32 32 32h766c17.7 0 32-14.3 32-32V129c0-17.7-14.3-32-32-32z" p-id="3118"></path><path d="M921.7 352.6H101v64h820.7v-64z" p-id="3119"></path><path d="M416.4 126.3h-64v797.4h64V126.3zM670.4 109.4h-64v814.3h64V109.4z" p-id="3120"></path><path d="M921.7 607.8H101v64h820.7v-64z" p-id="3121"></path></svg>