<svg t="1653295618409" class="icon" viewBox="0 0 1024 1024" version="1.1" xmlns="http://www.w3.org/2000/svg" p-id="4223" width="200" height="200"><path d="M828.4 129.3v760h-634v-760h634m0-64h-634c-35.3 0-64 28.7-64 64v760c0 35.3 28.7 64 64 64h634c35.3 0 64-28.7 64-64v-760c0-35.4-28.7-64-64-64z" p-id="4224" fill="#B2B2B2"></path><path d="M666.3 291.3h-364c-17.7 0-32 14.3-32 32s14.3 32 32 32h364c17.7 0 32-14.3 32-32s-14.3-32-32-32zM575.7 480.8H302.3c-17.7 0-32 14.3-32 32s14.3 32 32 32h273.3c17.7 0 32-14.3 32-32 0.1-17.7-14.3-32-31.9-32zM481 670.2H302.3c-17.7 0-32 14.3-32 32s14.3 32 32 32H481c17.7 0 32-14.3 32-32s-14.3-32-32-32z" p-id="4225" fill="#B2B2B2"></path></svg>