<svg id="icon_save_303133" xmlns="http://www.w3.org/2000/svg" width="48" height="48" viewBox="0 0 48 48">
  <rect id="矩形_28" data-name="矩形 28" width="48" height="48" fill="rgba(239,224,224,0)"/>
  <path id="路径_53" data-name="路径 53" d="M6,9A3,3,0,0,1,9,6H34.281L42,13.207V39a3,3,0,0,1-3,3H9a3,3,0,0,1-3-3Z" fill="none" stroke="#303133" stroke-linejoin="round" stroke-width="4"/>
  <path id="路径_54" data-name="路径 54" d="M24.008,6,24,13.385c0,.34-.448.615-1,.615H15c-.552,0-1-.276-1-.615V6" fill="none" fill-rule="evenodd"/>
  <path id="路径_55" data-name="路径 55" d="M24.008,6,24,13.385c0,.34-.448.615-1,.615H15c-.552,0-1-.276-1-.615V6Z" fill="none" stroke="#303133" stroke-linejoin="round" stroke-width="4"/>
  <path id="路径_56" data-name="路径 56" d="M9,6H34.281" fill="none" stroke="#303133" stroke-linecap="round" stroke-linejoin="round" stroke-width="4"/>
  <path id="路径_57" data-name="路径 57" d="M14,26H34" fill="none" stroke="#303133" stroke-linecap="round" stroke-linejoin="round" stroke-width="4"/>
  <path id="路径_58" data-name="路径 58" d="M14,34H24.008" fill="none" stroke="#303133" stroke-linecap="round" stroke-linejoin="round" stroke-width="4"/>
</svg>
