<?xml version="1.0" standalone="no"?><!DOCTYPE svg PUBLIC "-//W3C//DTD SVG 1.1//EN" "http://www.w3.org/Graphics/SVG/1.1/DTD/svg11.dtd"><svg t="1655281824040" class="icon" viewBox="0 0 1024 1024" version="1.1" xmlns="http://www.w3.org/2000/svg" p-id="3721" xmlns:xlink="http://www.w3.org/1999/xlink" width="128" height="128"><defs><style type="text/css">@font-face { font-family: feedback-iconfont; src: url("//at.alicdn.com/t/font_1031158_u69w8yhxdu.woff2?t=1630033759944") format("woff2"), url("//at.alicdn.com/t/font_1031158_u69w8yhxdu.woff?t=1630033759944") format("woff"), url("//at.alicdn.com/t/font_1031158_u69w8yhxdu.ttf?t=1630033759944") format("truetype"); }
</style></defs><path d="M891.64 924.41H158.69c-33.81 0-61.32-27.51-61.32-61.32V130.14c0-17.67 14.33-32 32-32s32 14.33 32 32v730.27h730.27c17.67 0 32 14.33 32 32s-14.33 32-32 32z" p-id="3722"></path><path d="M270.13 705.21a31.83 31.83 0 0 1-16.37-4.53c-15.17-9.06-20.13-28.7-11.08-43.88l103.81-173.91c8.76-14.36 22.55-24.57 38.85-28.73s33.3-1.82 47.87 6.59l0.89 0.51 171.93 114.55 0.25-0.43 0.38-0.5 178.88-286.01c9.37-14.98 29.11-19.53 44.1-10.16 14.98 9.37 19.53 29.12 10.16 44.1L661.17 608.43c-17.82 30.14-56.77 40.42-87.17 22.87l-0.89-0.51-171.97-114.58-103.5 173.39c-5.99 10.04-16.62 15.61-27.51 15.61z" p-id="3723"></path></svg>