<?xml version="1.0" standalone="no"?><!DOCTYPE svg PUBLIC "-//W3C//DTD SVG 1.1//EN" "http://www.w3.org/Graphics/SVG/1.1/DTD/svg11.dtd"><svg t="1655281792516" class="icon" viewBox="0 0 1024 1024" version="1.1" xmlns="http://www.w3.org/2000/svg" p-id="3419" xmlns:xlink="http://www.w3.org/1999/xlink" width="128" height="128"><defs><style type="text/css">@font-face { font-family: feedback-iconfont; src: url("//at.alicdn.com/t/font_1031158_u69w8yhxdu.woff2?t=1630033759944") format("woff2"), url("//at.alicdn.com/t/font_1031158_u69w8yhxdu.woff?t=1630033759944") format("woff"), url("//at.alicdn.com/t/font_1031158_u69w8yhxdu.ttf?t=1630033759944") format("truetype"); }
</style></defs><path d="M892.14 924.91H159.19c-33.81 0-61.32-27.51-61.32-61.32V130.64c0-17.67 14.33-32 32-32s32 14.33 32 32v730.27h730.27c17.67 0 32 14.33 32 32s-14.33 32-32 32z" p-id="3420"></path><path d="M292.7 722.91c-17.22 0-33.39-6.67-45.59-18.83-12.29-12.24-19.02-28.53-18.94-45.85l0.88-163.85c0.14-30.86 13.54-65.31 36.77-94.53 24.17-30.41 55.5-50.36 85.94-54.74 56.4-8.11 92.14 11.73 163.35 51.26 10.42 5.78 22.22 12.34 34.97 19.3 84.23 46.01 139.56-0.79 188.37-42.08 4.45-3.76 8.65-7.32 12.86-10.78 15.65-12.9 36.78-15.53 55.14-6.87 18.33 8.65 29.72 26.59 29.72 46.83v252.09c0 35.07-28.6 63.83-63.75 64.12l-479.18 3.91c-0.18 0.01-0.36 0.02-0.54 0.02z m82.84-315.59c-4.72 0-9.53 0.39-14.67 1.13-14.03 2.02-31.25 13.98-44.96 31.22-14.04 17.66-22.8 38.74-22.87 55.01v0.03l-0.88 163.81c0 0.05 0 0.09 0.11 0.2 0.17 0.17 0.31 0.16 0.45 0.17l479.18-3.91c0.07 0 0.21 0 0.28-0.14l-0.01-225.97c-25.38 21.31-56.33 45.74-94.7 59.43-19.73 7.04-39.74 10.55-59.92 10.55-32.35 0-65.17-9.02-98.14-27.03-12.94-7.07-24.85-13.68-35.35-19.51-59.19-32.83-82.35-44.99-108.52-44.99z" p-id="3421"></path></svg>