<svg t="1653295461863" class="icon" viewBox="0 0 1024 1024" version="1.1" xmlns="http://www.w3.org/2000/svg" p-id="3691" width="200" height="200"><path d="M864 463.2h-58.6v-70.8c0-78.1-30.4-151.5-85.7-206.8C664.5 130.4 591.1 100 513 100s-151.6 30.4-206.8 85.7c-55.2 55.2-85.6 128.6-85.7 206.6l-0.7 71H162c-35.3 0-64 28.7-64 64V864c0 35.3 28.7 64 64 64h702c35.3 0 64-28.7 64-64V527.2c0-35.3-28.7-64-64-64z m-579.4-70.5v-0.3C284.6 266.4 387 164 513 164s228.4 102.5 228.4 228.4v70.8H283.9l0.7-70.5zM864 864H162V527.2h702V864z" p-id="3692" fill="#B2B2B2"></path><path d="M511.3 610.1c-17.7 0-32 14.3-32 32V779c0 17.7 14.3 32 32 32s32-14.3 32-32V642.1c0-17.6-14.3-32-32-32z" p-id="3693" fill="#B2B2B2"></path></svg>