<?xml version="1.0" encoding="utf-8"?>
<!-- Generator: Adobe Illustrator 26.0.1, SVG Export Plug-In . SVG Version: 6.00 Build 0)  -->
<svg version="1.1" id="图层_1" xmlns="http://www.w3.org/2000/svg" xmlns:xlink="http://www.w3.org/1999/xlink" x="0px" y="0px"
	 viewBox="0 0 210 60" style="enable-background:new 0 0 210 60;" xml:space="preserve" width="210" height="60">
<style type="text/css">
	.st0{opacity:0;fill:#DCEEFF;}
	.st1{fill:#3392FF;}
</style>
<rect class="st0" width="210" height="60"/>
<g>
	<g>
		<g>
			<path class="st1" d="M44.79,33.03c0.29-0.08,0.51-0.33,0.54-0.63c0.08-0.73,0.12-1.46,0.12-2.21c0-4.82-1.67-9.25-4.46-12.75
				l-4.94,5.29L17.87,42.21c-2.45,2.63-1.23,6.99,2.26,7.84c0.08,0.02,0.16,0.04,0.24,0.06c1.64,0.38,3.35-0.16,4.5-1.38l7.64-8.1
				c0.72-0.76,0.2-2.01-0.84-2.04l-5.44-0.16l12.37-3.59L44.79,33.03z"/>
			<path class="st1" d="M24.56,15.53L7.37,33.76c-1.32,1.4-1.66,3.47-0.83,5.21c0.01,0.03,0.03,0.06,0.04,0.09
				c1.44,2.98,5.4,3.61,7.65,1.19l14.09-15.1c0.71-0.76,0.19-2-0.85-2.03l-5.39-0.16l12.26-3.59l6.17-1.81
				c0.21-0.06,0.29-0.32,0.15-0.49c-2.82-3.37-6.71-5.81-11.14-6.81L24.56,15.53z"/>
			<path class="st1" d="M40.31,38.19L28.94,50.25c8.52-1.66,15.15-8.62,16.32-17.31L40.31,38.19z"/>
			<path class="st1" d="M22.85,12.17l6.09-1.77c0.14-0.04,0.13-0.24-0.01-0.27C27.66,9.88,26.35,9.75,25,9.75
				c-5.65,0-10.76,2.29-14.46,5.99L22.85,12.17z"/>
			<path class="st1" d="M15.92,15.92l-5.4-0.16c-3.68,3.7-5.96,8.8-5.96,14.43c0,0.23,0.01,0.46,0.02,0.69l12.19-12.92
				C17.48,17.2,16.96,15.95,15.92,15.92z"/>
		</g>
	</g>
	<g>
		<path class="st1" d="M205.18,24.89c0.14,0,0.26-0.12,0.26-0.26V21v-6.72c0-0.14-0.12-0.26-0.26-0.26h-21.02
			c-0.14,0-0.26,0.12-0.26,0.26v32.09c0,0.14,0.12,0.26,0.26,0.26h3.37c0.14,0,0.26-0.12,0.26-0.26V25.15
			c0-0.14,0.12-0.26,0.26-0.26H205.18z M188.05,17.9h13.12c0.14,0,0.26,0.12,0.26,0.26v2.57c0,0.14-0.12,0.26-0.26,0.26h-13.12
			c-0.14,0-0.26-0.12-0.26-0.26v-2.57C187.79,18.02,187.9,17.9,188.05,17.9z"/>
		<path class="st1" d="M178.8,13.37h-2.85c-0.29,0-0.52,0.23-0.52,0.52v3.49c0,0.29-0.23,0.52-0.52,0.52h-2.12
			c-0.29,0-0.52,0.23-0.52,0.52v2.85c0,0.29,0.23,0.52,0.52,0.52h2.12c0.29,0,0.52,0.23,0.52,0.52v6.73c0,0.29-0.23,0.52-0.52,0.52
			h-1.96c-0.29,0-0.52,0.23-0.52,0.52v2.85c0,0.29,0.23,0.52,0.52,0.52h1.96c0.29,0,0.52,0.23,0.52,0.52v8.16
			c0,0.29-0.23,0.52-0.52,0.52h-1.86c-0.29,0-0.52,0.23-0.52,0.52v2.85c0,0.29,0.23,0.52,0.52,0.52h2.38v0.08h3.37
			c0.29,0,0.52-0.23,0.52-0.52V33.98c0-0.29,0.23-0.52,0.52-0.52h1.96c0.29,0,0.52-0.23,0.52-0.52v-2.85c0-0.29-0.23-0.52-0.52-0.52
			h-1.96c-0.29,0-0.52-0.23-0.52-0.52v-6.73c0-0.29,0.23-0.52,0.52-0.52h2.12c0.29,0,0.52-0.23,0.52-0.52v-2.85
			c0-0.29-0.23-0.52-0.52-0.52h-2.12c-0.29,0-0.52-0.23-0.52-0.52v-3.49C179.33,13.6,179.09,13.37,178.8,13.37z"/>
		<path class="st1" d="M205.32,32.88L205.32,32.88l-6.03,0c-0.14,0-0.26-0.12-0.26-0.26v-1.49c0-0.14,0.12-0.26,0.26-0.26h5.89
			c0.14,0,0.26-0.12,0.26-0.26v-3.37c0-0.14-0.12-0.26-0.26-0.26h-5.89c-0.14,0-0.26-0.12-0.26-0.26V25.7
			c0-0.14-0.12-0.26-0.26-0.26h-3.37c-0.14,0-0.26,0.12-0.26,0.26v1.01c0,0.14-0.12,0.26-0.26,0.26h-6.03
			c-0.14,0-0.26,0.12-0.26,0.26v3.37c0,0.14,0.12,0.26,0.26,0.26h6.03c0.14,0,0.26,0.12,0.26,0.26v1.49c0,0.14-0.12,0.26-0.26,0.26
			h-5.77c-0.14,0-0.26,0.12-0.26,0.26v3.63h0v9.53c0,0.14,0.12,0.26,0.26,0.26h3.63v0h8.81v0h3.63c0.14,0,0.26-0.12,0.26-0.26V32.88
			H205.32z M192.74,42.4v-5.38c0-0.14,0.12-0.26,0.26-0.26h8.29c0.14,0,0.26,0.12,0.26,0.26v5.38c0,0.14-0.12,0.26-0.26,0.26h-8.29
			C192.86,42.66,192.74,42.55,192.74,42.4z"/>
	</g>
	<g>
		<path class="st1" d="M120.01,33.81l4.54,12.65c0.04,0.1,0.13,0.17,0.24,0.17h3.59c0.18,0,0.3-0.18,0.24-0.34l-4.54-12.65
			c-0.04-0.1-0.13-0.17-0.24-0.17h-3.59C120.07,33.47,119.95,33.65,120.01,33.81z"/>
		<path class="st1" d="M103.44,27.67h2.16c0.14,0,0.26-0.11,0.26-0.26v-3.38c0-0.14-0.11-0.26-0.26-0.26h-8.72
			c-0.14,0-0.26,0.11-0.26,0.26v3.38c0,0.14,0.11,0.26,0.26,0.26h2.16c0.14,0,0.26,0.11,0.26,0.26v3.34c0,0.14-0.11,0.26-0.26,0.26
			h-3.21c-0.14,0-0.26,0.11-0.26,0.26v3.38c0,0.14,0.11,0.26,0.26,0.26h3.21c0.14,0,0.26,0.11,0.26,0.26v10.71
			c0,0.14,0.11,0.26,0.26,0.26h7.1c0.14,0,0.26-0.11,0.26-0.26V43c0-0.14-0.11-0.26-0.26-0.26h-3.21c-0.14,0-0.26-0.11-0.26-0.26
			v-6.82c0-0.14,0.11-0.26,0.26-0.26h3.21c0.14,0,0.26-0.11,0.26-0.26v-3.38c0-0.14-0.11-0.26-0.26-0.26h-3.21
			c-0.14,0-0.26-0.11-0.26-0.26v-3.34C103.18,27.79,103.3,27.67,103.44,27.67z"/>
		<path class="st1" d="M119.33,28.24l1.55-5.72c0.03-0.11,0.13-0.19,0.25-0.19h6.02c0.14,0,0.26-0.11,0.26-0.26V18.7
			c0-0.14-0.11-0.26-0.26-0.26h-4.83c-0.17,0-0.29-0.16-0.25-0.32l1.2-4.41c0.04-0.16-0.08-0.32-0.25-0.32l-3.49-0.01
			c-0.12,0-0.22,0.08-0.25,0.19l-1.28,4.7c-0.03,0.11-0.13,0.19-0.25,0.19h-3.46c-0.14,0-0.26-0.11-0.26-0.26v-0.98
			c0-0.14-0.11-0.26-0.26-0.26h-3.38c-0.14,0-0.26,0.11-0.26,0.26v6.9c0,0.14,0.11,0.26,0.26,0.26h3.38c0.14,0,0.26-0.11,0.26-0.26
			v-1.53c0-0.14,0.11-0.26,0.26-0.26h2.26c0.17,0,0.29,0.16,0.25,0.32l-1.55,5.72c-0.03,0.11-0.13,0.19-0.25,0.19h-5.84
			c-0.14,0-0.26,0.11-0.26,0.26v3.38c0,0.14,0.11,0.26,0.26,0.26h4.64c0.17,0,0.29,0.16,0.25,0.32l-3.67,13.53
			c-0.04,0.16,0.08,0.32,0.25,0.32h3.5c0.12,0,0.22-0.08,0.25-0.19l3.75-13.8c0.03-0.11,0.13-0.19,0.25-0.19h10.1
			c0.14,0,0.26-0.11,0.26-0.26v-3.38c0-0.14-0.11-0.26-0.26-0.26h-8.9C119.41,28.57,119.29,28.41,119.33,28.24z"/>
		<path class="st1" d="M104.43,14.04h-3.89c-0.09,0-0.17,0.05-0.22,0.12l-4.59,7.43c-0.1,0.17,0.02,0.39,0.22,0.39L99.82,22
			c0.09,0,0.17-0.05,0.22-0.12l0.85-1.37c0.05-0.08,0.13-0.12,0.22-0.12h5.88c0.14,0,0.26-0.11,0.26-0.26v-3.38
			c0-0.14-0.11-0.26-0.26-0.26h-3.17c-0.2,0-0.32-0.22-0.22-0.39l1.04-1.68C104.75,14.26,104.63,14.04,104.43,14.04z"/>
	</g>
	<g>
		<path class="st1" d="M166.97,46.25l-4.87-10.09c-0.03-0.07-0.03-0.16,0-0.23c3.81-8.11,5.55-9.42,4.95-18.57
			c-0.01-0.14-0.12-0.25-0.26-0.25h-6.4c-0.2,0-0.33-0.22-0.23-0.39l1.32-2.29c0.1-0.17-0.03-0.39-0.23-0.39l-3.86,0.02
			c-0.09,0-0.18,0.05-0.23,0.13l-4.77,8.27c-0.1,0.17,0.02,0.39,0.23,0.39l3.87,0.01c0.09,0,0.18-0.05,0.23-0.13l0.91-1.59
			c0.05-0.08,0.13-0.13,0.23-0.13h5.03c0.14,0,0.26,0.12,0.26,0.26v3.32c0,0.04-0.01,0.08-0.03,0.11l-3.04,6.3
			c-0.1,0.2-0.38,0.2-0.47,0l-3-6.22c-0.04-0.09-0.14-0.15-0.24-0.15h-3.72c-0.19,0-0.32,0.2-0.24,0.37l5.17,10.93
			c0.03,0.07,0.03,0.15,0,0.23l-4.87,10.09c-0.08,0.17,0.04,0.38,0.24,0.38h3.92c0.1,0,0.19-0.06,0.24-0.15l2.49-5.27
			c0.09-0.2,0.38-0.2,0.47,0l2.49,5.27c0.04,0.09,0.14,0.15,0.24,0.15h3.92C166.92,46.62,167.05,46.42,166.97,46.25z"/>
		<path class="st1" d="M144.43,13.38h-3.36c-0.14,0-0.26,0.12-0.26,0.26v5.15c0,0.14-0.12,0.26-0.26,0.26h-6.33
			c-0.14,0-0.26,0.12-0.26,0.26v3.36c0,0.14,0.12,0.26,0.26,0.26h6.33c0.14,0,0.26,0.12,0.26,0.26v3.51c0,0.14,0.12,0.26,0.26,0.26
			h3.36c0.14,0,0.26-0.12,0.26-0.26V23.2c0-0.14,0.12-0.26,0.26-0.26h6.33c0.14,0,0.26-0.12,0.26-0.26v-3.36
			c0-0.14-0.12-0.26-0.26-0.26h-6.33c-0.14,0-0.26-0.12-0.26-0.26v-5.15C144.7,13.49,144.58,13.38,144.43,13.38z"/>
		<path class="st1" d="M148.8,28.58h-3.36c-0.14,0-0.26,0.12-0.26,0.26v1.1c0,0.14-0.12,0.26-0.26,0.26h-4.95
			c-0.14,0-0.26-0.12-0.26-0.26v-1.12c0-0.14-0.12-0.26-0.26-0.26h-3.36c-0.14,0-0.26,0.12-0.26,0.26v1.12
			c0,0.14-0.12,0.26-0.26,0.26h-1.42c-0.14,0-0.26,0.12-0.26,0.26v3.36c0,0.14,0.12,0.26,0.26,0.26h1.42c0.14,0,0.26,0.12,0.26,0.26
			v3.14c0,0.07,0.03,0.14,0.08,0.19c0.76,0.71,3.01,2.83,3.93,3.7c0.11,0.1,0.11,0.27,0,0.38l-4.58,4.33
			c-0.17,0.16-0.06,0.45,0.18,0.45h4.05c0.07,0,0.13-0.03,0.18-0.07l2.62-2.46c0.1-0.09,0.26-0.09,0.36,0l2.62,2.46
			c0.05,0.05,0.11,0.07,0.18,0.07h4.05c0.24,0,0.35-0.29,0.18-0.45l-4.58-4.33c-0.11-0.1-0.11-0.27,0-0.38
			c0.87-0.82,3.25-3.05,3.92-3.69c0.05-0.05,0.08-0.12,0.08-0.19v-3.15c0-0.14,0.12-0.26,0.26-0.26h1.97c0.14,0,0.26-0.12,0.26-0.26
			v-3.36c0-0.14-0.12-0.26-0.26-0.26h-1.97c-0.14,0-0.26-0.12-0.26-0.26v-1.1C149.06,28.7,148.95,28.58,148.8,28.58z M145.09,36.78
			l-2.47,2.33c-0.1,0.1-0.26,0.1-0.36,0l-2.48-2.35c-0.05-0.05-0.08-0.12-0.08-0.19v-2.22c0-0.14,0.12-0.26,0.26-0.26h4.95
			c0.14,0,0.26,0.12,0.26,0.26v2.23C145.18,36.66,145.15,36.73,145.09,36.78z"/>
		<path class="st1" d="M139,23.96h-3.36c-0.14,0-0.26,0.12-0.26,0.26v2.07c0,0.14,0.12,0.26,0.26,0.26H139
			c0.14,0,0.26-0.12,0.26-0.26v-2.07C139.26,24.08,139.15,23.96,139,23.96z"/>
		<path class="st1" d="M149.87,23.96h-3.36c-0.14,0-0.26,0.12-0.26,0.26v2.07c0,0.14,0.12,0.26,0.26,0.26h3.36
			c0.14,0,0.26-0.12,0.26-0.26v-2.07C150.13,24.08,150.01,23.96,149.87,23.96z"/>
		<path class="st1" d="M150.8,14.89h-3.24c-0.09,0-0.18,0.05-0.23,0.13l-1.26,2.19c-0.1,0.17,0.03,0.39,0.23,0.39h3.24
			c0.09,0,0.18-0.05,0.23-0.13l1.26-2.19C151.13,15.11,151,14.89,150.8,14.89z"/>
		<path class="st1" d="M139.34,17.21l-1.26-2.18c-0.05-0.08-0.13-0.13-0.23-0.13h-3.24c-0.2,0-0.33,0.22-0.23,0.39l1.24,2.15
			c0.05,0.08,0.13,0.13,0.22,0.13l3.25,0.03C139.31,17.6,139.44,17.38,139.34,17.21z"/>
	</g>
	<path class="st1" d="M76.77,19.85H89.9c0.14,0,0.26-0.12,0.26-0.26v-3.36c0-0.14-0.12-0.26-0.26-0.26H75.74
		c-0.14,0-0.26-0.12-0.26-0.26v-2.07c0-0.14-0.12-0.26-0.26-0.26h-3.36c-0.14,0-0.26,0.12-0.26,0.26v2.07
		c0,0.14-0.12,0.26-0.26,0.26H57.16c-0.14,0-0.26,0.12-0.26,0.26v3.36c0,0.14,0.12,0.26,0.26,0.26h13.55c0.23,0,0.35,0.28,0.18,0.45
		L57.35,33.76c-0.17,0.16-0.05,0.45,0.18,0.45h11.59c0.23,0,0.35,0.28,0.19,0.45L57.88,46.18c-0.16,0.17-0.05,0.45,0.18,0.45
		c4.9,0,22.97,0,26.91,0l0,0.01c0.52-0.01,2.34-0.01,2.89-0.01v-0.01l1.85-0.01c0.2,0,0.33-0.22,0.22-0.39l-4.07-6.98
		c-0.05-0.08-0.13-0.13-0.23-0.13l-4.38,0.02c-0.2,0-0.32,0.21-0.23,0.39l1.57,2.85c0.1,0.17-0.03,0.39-0.23,0.39H67.51
		c-0.23,0-0.35-0.28-0.19-0.44l12.83-13.33c0.16-0.17,0.04-0.44-0.19-0.44h-4.46c-0.07,0-0.14,0.03-0.19,0.08l-1.63,1.64
		c-0.05,0.05-0.12,0.08-0.19,0.08h-6.29c-0.23,0-0.35-0.28-0.19-0.44l9.55-9.95C76.63,19.87,76.69,19.85,76.77,19.85z"/>
</g>
</svg>
