<?xml version="1.0" standalone="no"?><!DOCTYPE svg PUBLIC "-//W3C//DTD SVG 1.1//EN" "http://www.w3.org/Graphics/SVG/1.1/DTD/svg11.dtd"><svg t="1651204265093" class="icon" viewBox="0 0 1024 1024" version="1.1" xmlns="http://www.w3.org/2000/svg" p-id="2598" xmlns:xlink="http://www.w3.org/1999/xlink" width="128" height="128"><defs><style type="text/css">@font-face { font-family: feedback-iconfont; src: url("//at.alicdn.com/t/font_1031158_u69w8yhxdu.woff2?t=1630033759944") format("woff2"), url("//at.alicdn.com/t/font_1031158_u69w8yhxdu.woff?t=1630033759944") format("woff"), url("//at.alicdn.com/t/font_1031158_u69w8yhxdu.ttf?t=1630033759944") format("truetype"); }
</style></defs><path d="M703.2 929H163.9c-35.3 0-64-28.7-64-64V162.8c0-35.3 28.7-64 64-64h539.3c35.3 0 64 28.7 64 64v72c0 17.7-14.3 32-32 32s-32-14.3-32-32v-72H163.9V865h539.3v-83.9c0-17.7 14.3-32 32-32s32 14.3 32 32V865c0 35.3-28.7 64-64 64z" p-id="2599"></path><path d="M907 470L783.9 348c-12.6-12.4-32.8-12.4-45.3 0.2-12.4 12.6-12.4 32.8 0.2 45.3l87.2 86.4H351.3c-17.7 0-32 14.3-32 32s14.3 32 32 32h477.2c2.7 0 5.3-0.3 7.7-0.9l-94.1 100.4c-12.1 12.9-11.4 33.1 1.5 45.2 6.2 5.8 14 8.6 21.9 8.6 8.5 0 17.1-3.4 23.4-10.1l118.8-126.7c11.9-12.1 18.4-28 18.3-45 0-17.3-6.8-33.4-19-45.4z m-45.4 45.8l-1.6 1.7c0.2-1.2 0.4-2.4 0.4-3.6l1.5 1.5-0.3 0.4z" p-id="2600"></path></svg>