<?xml version="1.0" encoding="utf-8"?>
<!-- Generator: Adobe Illustrator 26.0.1, SVG Export Plug-In . SVG Version: 6.00 Build 0)  -->
<svg version="1.1" id="图层_1" xmlns="http://www.w3.org/2000/svg" xmlns:xlink="http://www.w3.org/1999/xlink" x="0px" y="0px"
	 viewBox="0 0 60 60" style="enable-background:new 0 0 60 60;" xml:space="preserve" width="60" height="60">
<style type="text/css">
	.st0{opacity:0;fill:#DCEEFF;}
	.st1{fill:#fff;}
</style>
<rect class="st0" width="60" height="60"/>
<g>
	<g>
		<path class="st1" d="M44.79,33.03c0.29-0.08,0.51-0.33,0.54-0.63c0.08-0.73,0.12-1.46,0.12-2.21c0-4.82-1.67-9.25-4.46-12.75
			l-4.94,5.29L17.87,42.21c-2.45,2.63-1.23,6.99,2.26,7.84c0.08,0.02,0.16,0.04,0.24,0.06c1.64,0.38,3.35-0.16,4.5-1.38l7.64-8.1
			c0.72-0.76,0.2-2.01-0.84-2.04l-5.44-0.16l12.37-3.59L44.79,33.03z"/>
		<path class="st1" d="M24.56,15.53L7.37,33.76c-1.32,1.4-1.66,3.47-0.83,5.21c0.01,0.03,0.03,0.06,0.04,0.09
			c1.44,2.98,5.4,3.61,7.65,1.19l14.09-15.1c0.71-0.76,0.19-2-0.85-2.03l-5.39-0.16l12.26-3.59l6.17-1.81
			c0.21-0.06,0.29-0.32,0.15-0.49c-2.82-3.37-6.71-5.81-11.14-6.81L24.56,15.53z"/>
		<path class="st1" d="M40.31,38.19L28.94,50.25c8.52-1.66,15.15-8.62,16.32-17.31L40.31,38.19z"/>
		<path class="st1" d="M22.85,12.17l6.09-1.77c0.14-0.04,0.13-0.24-0.01-0.27C27.66,9.88,26.35,9.75,25,9.75
			c-5.65,0-10.76,2.29-14.46,5.99L22.85,12.17z"/>
		<path class="st1" d="M15.92,15.92l-5.4-0.16c-3.68,3.7-5.96,8.8-5.96,14.43c0,0.23,0.01,0.46,0.02,0.69l12.19-12.92
			C17.48,17.2,16.96,15.95,15.92,15.92z"/>
	</g>
</g>
</svg>
