<?xml version="1.0" encoding="utf-8"?>
<!-- Generator: Adobe Illustrator 26.0.1, SVG Export Plug-In . SVG Version: 6.00 Build 0)  -->
<svg version="1.1" id="图层_1" xmlns="http://www.w3.org/2000/svg" xmlns:xlink="http://www.w3.org/1999/xlink" x="0px" y="0px"
	 viewBox="0 0 1024 1024" style="enable-background:new 0 0 1024 1024;" xml:space="preserve">
<style type="text/css">
	.st0{opacity:0;}
</style>
<g>
	<rect class="st0" width="1024" height="1024"/>
	<g>
		<path d="M479.3,925.4h-317c-35.3,0-64-28.7-64-64V164.6c0-35.3,28.7-64,64-64h317c17.7,0,32,14.3,32,32s-14.3,32-32,32h-317v696.9
			h317c17.7,0,32,14.3,32,32S497,925.4,479.3,925.4z"/>
	</g>
	<path d="M905.6,466.7L766.1,327.2c-12.5-12.5-32.8-12.5-45.3,0c-12.5,12.5-12.5,32.8,0,45.3l108.8,108.8H351.3
		c-17.7,0-32,14.3-32,32v0c0,17.7,14.3,32,32,32h475.8L720.8,651.5c-12.5,12.5-12.5,32.8,0,45.3c6.2,6.2,14.4,9.4,22.6,9.4
		s16.4-3.1,22.6-9.4l139.5-139.5C930.6,532.3,930.6,491.7,905.6,466.7z"/>
</g>
</svg>
