<?xml version="1.0" standalone="no"?><!DOCTYPE svg PUBLIC "-//W3C//DTD SVG 1.1//EN" "http://www.w3.org/Graphics/SVG/1.1/DTD/svg11.dtd"><svg t="1655281872516" class="icon" viewBox="0 0 1024 1024" version="1.1" xmlns="http://www.w3.org/2000/svg" p-id="2966" xmlns:xlink="http://www.w3.org/1999/xlink" width="128" height="128"><defs><style type="text/css">@font-face { font-family: feedback-iconfont; src: url("//at.alicdn.com/t/font_1031158_u69w8yhxdu.woff2?t=1630033759944") format("woff2"), url("//at.alicdn.com/t/font_1031158_u69w8yhxdu.woff?t=1630033759944") format("woff"), url("//at.alicdn.com/t/font_1031158_u69w8yhxdu.ttf?t=1630033759944") format("truetype"); }
</style></defs><path d="M512 924.35c-55.65 0-109.66-10.91-160.52-32.42-49.11-20.77-93.2-50.5-131.06-88.36s-67.59-81.96-88.36-131.06C110.55 621.66 99.65 567.65 99.65 512c0-55.65 10.91-109.66 32.42-160.52 20.77-49.11 50.5-93.2 88.36-131.06s81.96-67.59 131.06-88.36C402.34 110.55 456.35 99.65 512 99.65h32V480h380.35v32c0 55.65-10.91 109.66-32.42 160.52-20.77 49.11-50.5 93.2-88.36 131.06s-81.96 67.59-131.06 88.36c-50.85 21.51-104.86 32.41-160.51 32.41zM480 165.1C302.86 181.31 163.65 330.7 163.65 512c0 93.05 36.24 180.53 102.03 246.32S418.95 860.35 512 860.35c181.3 0 330.69-139.21 346.9-316.35H544c-35.29 0-64-28.71-64-64V165.1z" p-id="2967"></path><path d="M643.93 447.45c-17 0-32.99-6.59-45.07-18.58-12.18-12.1-18.89-28.22-18.89-45.38V99.65h32c83.9 0 162.78 32.67 222.1 92 59.33 59.33 92 138.2 92 222.1v31.78l-281.7 1.92h-0.44z m250.15-33.7z m-250.1-248.07v217.8l216.09-1.5c-14.31-112.48-103.64-201.87-216.09-216.3z" p-id="2968"></path></svg>