<?xml version="1.0" encoding="utf-8"?>
<!-- Generator: Adobe Illustrator 26.0.1, SVG Export Plug-In . SVG Version: 6.00 Build 0)  -->
<svg version="1.1" id="图层_1" xmlns="http://www.w3.org/2000/svg" xmlns:xlink="http://www.w3.org/1999/xlink" x="0px" y="0px"
	 viewBox="0 0 1024 1024" style="enable-background:new 0 0 1024 1024;" xml:space="preserve">
<style type="text/css">
	.st0{opacity:0;}
</style>
<g>
	<rect class="st0" width="1024" height="1024"/>
	<path d="M730.2,98.2L532.4,212.4v39.3h-38.8v-39.3L295.8,98.2L98,212.4l0,228.4L295.8,555l29.7-17.1l18.1,31.3l-28.4,16.4l0,228.4
		L513,928.2L710.8,814l0-228.4l-28.2-16.3l18.1-31.3l29.5,17L928,440.8l0-228.4L730.2,98.2z M654.9,553.3L513,471.4l-141.7,81.8
		l-18.1-31.3l140.4-81.1l0-157.1h38.8l0,157.1L673,522L654.9,553.3z"/>
</g>
</svg>
