<?xml version="1.0" standalone="no"?><!DOCTYPE svg PUBLIC "-//W3C//DTD SVG 1.1//EN" "http://www.w3.org/Graphics/SVG/1.1/DTD/svg11.dtd"><svg t="1651046561691" class="icon" viewBox="0 0 1024 1024" version="1.1" xmlns="http://www.w3.org/2000/svg" p-id="6830" xmlns:xlink="http://www.w3.org/1999/xlink" width="128" height="128"><defs><style type="text/css">@font-face { font-family: feedback-iconfont; src: url("//at.alicdn.com/t/font_1031158_u69w8yhxdu.woff2?t=1630033759944") format("woff2"), url("//at.alicdn.com/t/font_1031158_u69w8yhxdu.woff?t=1630033759944") format("woff"), url("//at.alicdn.com/t/font_1031158_u69w8yhxdu.ttf?t=1630033759944") format("truetype"); }
</style></defs><path d="M513 172.05l124.65 71.96v143.93L513 459.91l-124.65-71.96V244.02L513 172.05m0-73.9L324.35 207.07V424.9L513 533.81 701.65 424.9V207.07L513 98.15zM287.88 569.49l124.65 71.96v143.93l-124.65 71.96-124.65-71.96V641.45l124.65-71.96m0-73.9L99.24 604.5v217.83l188.65 108.91 188.65-108.91V604.5L287.88 495.59zM737.15 564.29l124.65 71.96v143.93l-124.65 71.96-124.65-71.96V636.26l124.65-71.97m0-73.9L548.51 599.31v217.83l188.65 108.91L925.8 817.14V599.31L737.15 490.39z" p-id="6831"></path></svg>