<svg t="1653295554238" class="icon" viewBox="0 0 1024 1024" version="1.1" xmlns="http://www.w3.org/2000/svg" p-id="3934" width="200" height="200"><path d="M441.67 959.42h-250c-33.82 0-61.34-27.66-61.34-61.65V127.8c0-34 27.52-61.65 61.34-61.65h639.99c33.82 0 61.34 27.66 61.34 61.65v384.28c0 17.67-14.33 32-32 32s-32-14.33-32-32V130.15H194.33v765.27h247.33c17.67 0 32 14.33 32 32s-14.32 32-31.99 32z" p-id="3935" fill="#B2B2B2"></path><path d="M611 480.33H282.11c-17.67 0-32 14.33-32 32V518c0 17.67 14.33 32 32 32H611c17.67 0 32-14.33 32-32v-5.67c0-17.67-14.33-32-32-32zM479.36 695H275.44c-17.67 0-32 14.33-32 32v5.67c0 17.67 14.33 32 32 32h203.91c17.67 0 32-14.33 32-32V727c0.01-17.68-14.32-32-31.99-32zM739.67 242.11H286.33c-17.67 0-32 14.33-32 32v5.67c0 17.67 14.33 32 32 32h453.33c17.67 0 32-14.33 32-32v-5.67c0.01-17.68-14.32-32-31.99-32zM560.08 960.38l-1.15-0.08c-24.57-1.62-44.42-21.37-46.18-45.93l-0.1-1.35 0.47-37.04c-0.48-13.22 4.48-25.99 13.77-35.28l247.02-247.02c18.66-18.66 49.37-18.32 68.45 0.77l36.43 36.43c8.96 8.96 14.13 20.8 14.54 33.33 0.43 13.13-4.59 25.94-13.78 35.12L632.51 946.39c-9.27 9.27-22.07 14.23-35.27 13.77l-37.16 0.22z m16.99-79.34l-0.19 15.24 15.33-0.09 230.7-230.7-15.14-15.14-230.7 230.69z" p-id="3936" fill="#B2B2B2"></path></svg>