<svg t="1653978989659" class="icon" viewBox="0 0 1024 1024" version="1.1" xmlns="http://www.w3.org/2000/svg" p-id="3121" width="200" height="200"><path d="M828.4 924.4H197.6c-52.9 0-96-43.1-96-96V197.6c0-52.9 43.1-96 96-96h313.7c17.7 0 32 14.3 32 32s-14.3 32-32 32H197.6c-17.6 0-32 14.4-32 32v630.7c0 17.6 14.4 32 32 32h630.7c17.6 0 32-14.4 32-32V512c0-17.7 14.3-32 32-32s32 14.3 32 32v316.4c0.1 52.9-43 96-95.9 96z" p-id="3122" fill="#606266"></path><path d="M375.8 680.2c-8.2 0-16.4-3.1-22.6-9.4-12.5-12.5-12.5-32.8 0-45.3L869.7 109c12.5-12.5 32.8-12.5 45.3 0s12.5 32.8 0 45.3L398.4 670.8c-6.2 6.3-14.4 9.4-22.6 9.4z" p-id="3123" fill="#606266"></path></svg>