<?xml version="1.0" standalone="no"?><!DOCTYPE svg PUBLIC "-//W3C//DTD SVG 1.1//EN" "http://www.w3.org/Graphics/SVG/1.1/DTD/svg11.dtd"><svg t="1651046458663" class="icon" viewBox="0 0 1024 1024" version="1.1" xmlns="http://www.w3.org/2000/svg" p-id="5769" xmlns:xlink="http://www.w3.org/1999/xlink" width="128" height="128"><defs><style type="text/css">@font-face { font-family: feedback-iconfont; src: url("//at.alicdn.com/t/font_1031158_u69w8yhxdu.woff2?t=1630033759944") format("woff2"), url("//at.alicdn.com/t/font_1031158_u69w8yhxdu.woff?t=1630033759944") format("woff"), url("//at.alicdn.com/t/font_1031158_u69w8yhxdu.ttf?t=1630033759944") format("truetype"); }
</style></defs><path d="M863 161.5v702H161v-702h702m32-64H129c-17.67 0-32 14.33-32 32v766c0 17.67 14.33 32 32 32h766c17.67 0 32-14.33 32-32v-766c0-17.67-14.33-32-32-32z" p-id="5770"></path><path d="M316.22 505.06c-17.67 0-32 14.33-32 32V741.5c0 17.67 14.33 32 32 32s32-14.33 32-32V537.06c0-17.68-14.32-32-32-32zM512.28 400.83c-17.67 0-32 14.33-32 32V741.5c0 17.67 14.33 32 32 32s32-14.33 32-32V432.83c0-17.67-14.33-32-32-32zM708.33 251.5c-17.67 0-32 14.33-32 32v458c0 17.67 14.33 32 32 32s32-14.33 32-32v-458c0-17.67-14.32-32-32-32z" p-id="5771"></path></svg>