<?xml version="1.0" standalone="no"?><!DOCTYPE svg PUBLIC "-//W3C//DTD SVG 1.1//EN" "http://www.w3.org/Graphics/SVG/1.1/DTD/svg11.dtd"><svg t="1651046464288" class="icon" viewBox="0 0 1024 1024" version="1.1" xmlns="http://www.w3.org/2000/svg" p-id="5920" xmlns:xlink="http://www.w3.org/1999/xlink" width="128" height="128"><defs><style type="text/css">@font-face { font-family: feedback-iconfont; src: url("//at.alicdn.com/t/font_1031158_u69w8yhxdu.woff2?t=1630033759944") format("woff2"), url("//at.alicdn.com/t/font_1031158_u69w8yhxdu.woff?t=1630033759944") format("woff"), url("//at.alicdn.com/t/font_1031158_u69w8yhxdu.ttf?t=1630033759944") format("truetype"); }
</style></defs><path d="M130.36 928.22c-17.67 0-32-14.33-32-32V713.89c0-17.67 14.33-32 32-32s32 14.33 32 32v182.33c0 17.67-14.32 32-32 32zM384.36 928.22c-17.67 0-32-14.33-32-32V537.89c0-17.67 14.33-32 32-32s32 14.33 32 32v358.33c0 17.67-14.33 32-32 32zM638.36 928.22c-17.67 0-32-14.33-32-32V653.44c0-17.67 14.33-32 32-32s32 14.33 32 32v242.77c0 17.68-14.33 32.01-32 32.01zM892.35 928.22c-17.67 0-32-14.33-32-32V475.67c0-17.67 14.33-32 32-32s32 14.33 32 32v420.55c0 17.67-14.32 32-32 32z" p-id="5921"></path><path d="M130.12 570.3c-8.53 0-17.04-3.39-23.34-10.1-12.09-12.89-11.45-33.14 1.43-45.23L342.3 295.25a64.016 64.016 0 0 1 41.16-17.28 63.988 63.988 0 0 1 42.45 13.83l207.8 165.08 0.83-1 0.91-0.93 234-239.85c12.34-12.65 32.6-12.9 45.25-0.56 12.65 12.34 12.9 32.6 0.56 45.25L682.02 498.87c-10.68 12.3-25.42 19.98-41.67 21.67-16.76 1.75-33.25-3.06-46.45-13.54L386.1 341.92 152.01 561.63c-6.17 5.8-14.04 8.67-21.89 8.67z" p-id="5922"></path><path d="M896 404.54c-17.67 0-32-14.33-32-32V249.73l-117.14-0.52c-17.67-0.08-31.94-14.47-31.86-32.14 0.08-17.62 14.39-31.86 32-31.86h0.15l117.14 0.52c35.13 0.16 63.71 28.87 63.71 64v122.81c0 17.68-14.33 32-32 32z" p-id="5923"></path></svg>