<?xml version="1.0" standalone="no"?><!DOCTYPE svg PUBLIC "-//W3C//DTD SVG 1.1//EN" "http://www.w3.org/Graphics/SVG/1.1/DTD/svg11.dtd"><svg t="1666600482548" class="icon" viewBox="0 0 1024 1024" version="1.1" xmlns="http://www.w3.org/2000/svg" p-id="3670" xmlns:xlink="http://www.w3.org/1999/xlink" width="128" height="128"><path d="M441.7 959.4h-250c-33.8 0-61.3-27.7-61.3-61.7v-770c0-34 27.5-61.7 61.3-61.7h640c33.8 0 61.3 27.7 61.3 61.7v462.8c0 17.7-14.3 32-32 32s-32-14.3-32-32V130.2H194.3v765.3h247.3c17.7 0 32 14.3 32 32s-14.3 31.9-31.9 31.9z" p-id="3671"></path><path d="M611 480.3H282.1c-17.7 0-32 14.3-32 32v5.7c0 17.7 14.3 32 32 32H611c17.7 0 32-14.3 32-32v-5.7c0-17.6-14.3-32-32-32zM414.6 695H275.4c-17.7 0-32 14.3-32 32v5.7c0 17.7 14.3 32 32 32h139.1c17.7 0 32-14.3 32-32V727c0.1-17.7-14.3-32-31.9-32zM739.7 242.1H286.3c-17.7 0-32 14.3-32 32v5.7c0 17.7 14.3 32 32 32h453.3c17.7 0 32-14.3 32-32v-5.7c0.1-17.7-14.3-32-31.9-32zM613.9 960.3h-0.4c-19.6-0.1-38-7.8-51.9-21.5l-95.1-94.1c-12.6-12.4-12.7-32.7-0.2-45.3 12.4-12.6 32.7-12.7 45.3-0.2l95.1 94.1c4 4 10.5 4 14.6 0.1L839 682.9c12.7-12.3 33-11.9 45.2 0.8 12.3 12.7 11.9 33-0.8 45.2L665.6 939.4c-14 13.5-32.3 20.9-51.7 20.9z" p-id="3672"></path></svg>