<?xml version="1.0" standalone="no"?><!DOCTYPE svg PUBLIC "-//W3C//DTD SVG 1.1//EN" "http://www.w3.org/Graphics/SVG/1.1/DTD/svg11.dtd"><svg t="1651743725845" class="icon" viewBox="0 0 1024 1024" version="1.1" xmlns="http://www.w3.org/2000/svg" p-id="2658" xmlns:xlink="http://www.w3.org/1999/xlink" width="128" height="128"><defs><style type="text/css">@font-face { font-family: feedback-iconfont; src: url("//at.alicdn.com/t/font_1031158_u69w8yhxdu.woff2?t=1630033759944") format("woff2"), url("//at.alicdn.com/t/font_1031158_u69w8yhxdu.woff?t=1630033759944") format("woff"), url("//at.alicdn.com/t/font_1031158_u69w8yhxdu.ttf?t=1630033759944") format("truetype"); }
</style></defs><path d="M838.3 780.1c-3.4-0.9-7.6-0.4-12.4 1.3-64 29.3-126.3 50.1-186.8 62.5-130.7 26.6-258 12.7-381.9-41.6-34.4-15.1-82.2-40.7-143.4-76.8-1.7-1.2-3.4-2-5.5-2.1-2.1-0.1-3.8 0.1-5.5 0.9-1.7 0.8-2.9 1.9-3.8 3.2-0.9 1.3-1.1 3.2-0.4 5.6 0.6 2.3 2.2 4.9 4.8 7.7 10.8 12.7 24.2 26.1 40.1 40.5 15.9 14.3 37 30.5 63.3 48.6 26.3 18.1 53.8 34.1 82.4 48.1 28.7 14 61.9 25.8 99.9 35.4 37.9 9.5 75.9 14.3 113.7 14.3 37.6 0 74.2-3.8 109.7-11.3 35.5-7.6 65.5-16.5 89.9-26.9 24.3-10.3 46.8-21.8 67.4-34.2 20.6-12.5 35.8-23 45.6-31.4 9.9-8.5 16.9-15.1 21-20.1 4.8-5.9 7.2-11 7.2-15.5 0-4.7-1.8-7.4-5.3-8.2zM529 343.6c-15.8 1.3-34.8 4.2-57.2 8.6-22.3 4.3-43 9.6-62.2 16-19.1 6.3-38.7 15.1-58.5 26.3-20 11.2-36.9 24.1-50.9 38.4-14 14.3-25.5 32.3-34.4 53.9-8.9 21.6-13.4 45.3-13.4 71.3 0 28.1 4.9 53.1 14.9 75.2 9.9 22.1 23.1 39.4 39.7 52.3 16.5 12.9 35.3 22.9 56.1 30.3 20.8 7.4 42.8 10.7 65.7 9.8 22.9-0.9 45.2-4.5 66.9-10.7 21.6-6.1 42-16 60.9-29.4 18.9-13.4 34.4-29.3 46.6-47.4 4.5 6.8 8.4 11.9 12 15.3l9 9.2c6 6.1 15.3 15.1 27.8 27.1 12.4 11.9 25 23.5 37.7 35l108.5-103.6-6.2-5.2c-4.5-3.4-9.8-8.3-15.8-14.8-6-6.4-12.1-13.6-17.9-21.3-5.9-7.7-11-16.7-15.3-26.9-4.3-10.2-6.4-20-6.4-29.6V250.8c0-10.5-2-21.8-5.9-34-4.1-12.1-11.1-25.4-21.5-39.7-10.4-14.3-23.3-27.2-38.7-38.4-15.5-11.2-36.1-20.7-61.9-28.4-25.8-7.7-54.7-11.5-86.5-11.5-32.5 0-62.8 3.8-91.1 11.3-28.2 7.6-52.3 17.6-72.4 30.3-20.1 12.7-37.3 27.3-51.7 44-14.3 16.7-25.1 34.1-32 52.3-7 18.2-10.5 36.5-10.5 55.1L404.9 304c5.7-17 13.4-31.7 22.9-44.4 9.6-12.7 18.6-21.8 26.8-27.5 8.3-5.7 17.3-10.3 26.7-13.7 9.6-3.4 16-5.2 19.3-5.6 3.3-0.3 5.9-0.4 7.9-0.4 27.8 0 47 8.2 57.8 24.5 6.8 9.9 10.1 24.8 10.1 44.9v58.7c-15.8 0.7-31.6 1.7-47.4 3.1z m47.5 157.5c0 17.2-2.3 32.9-6.8 46.7-9.6 30.2-27.8 49.2-54.5 56.8-23.3 6.8-45.4 3.4-66.4-10.2-22.3-14.5-33.5-35.1-33.5-61.5 0-20.6 5.2-38.3 15.6-53 10.4-14.6 24.2-25.6 41.6-32.9 17.4-7.3 34.3-12.5 50.9-15.5 16.5-3.1 34.3-5 53-5.6v75.2z m348.4 227.1c-4.5-5.6-16.5-9.2-36.3-11.1-19.8-1.9-36.9-1.8-51.7 0.4-15.9 1.9-32.3 6.4-49.2 13.9-16.9 7.4-24.3 13.6-22.5 18.5l0.7 1.3 0.9 0.7 1.5 0.2h4.8c0.8 0 1.9-0.1 3.3-0.2 1.5-0.1 2.8-0.3 4.1-0.4 1.2-0.1 3-0.3 5.3-0.4 2.2-0.1 4.3-0.4 6.2-0.7 0.3 0 3.8-0.3 10.7-0.9 6.9-0.6 11.8-1 14.9-1.3 3-0.3 8.1-0.6 15.1-0.9 7-0.3 12.6-0.3 16.7 0 4.2 0.3 8.8 0.7 14.1 1.1 5.3 0.4 9.6 1.3 12.9 2.8 3.3 1.3 5.8 3.1 7.4 5.3 5.4 6.8 4.4 22-3.1 45.5s-14.6 42.3-21.2 56.2c-2.9 5.9-2.9 9.5 0 11.1 2.9 1.6 7 0.1 12.4-4.1 16.2-12.7 29.7-31.7 40.6-57.4 6.3-15.1 10.9-30.9 13.6-47.4 2.7-16.5 2.2-27.2-1.2-32.2z m0 0" p-id="2659"></path></svg>