<?xml version="1.0" encoding="utf-8"?>
<!-- Generator: Adobe Illustrator 26.0.1, SVG Export Plug-In . SVG Version: 6.00 Build 0)  -->
<svg version="1.1" id="图层_1" xmlns="http://www.w3.org/2000/svg" xmlns:xlink="http://www.w3.org/1999/xlink" x="0px" y="0px"
	 viewBox="0 0 1024 1024" style="enable-background:new 0 0 1024 1024;" xml:space="preserve">
<style type="text/css">
	.st0{fill:none;}
	.st1{fill: currentColor;}
</style>
<g>
	<rect y="0" class="st0" width="1024" height="1024"/>
	<path class="st1" d="M773.8,454.7c-0.1-0.2-0.4-0.3-0.6-0.3h-176V307.8c0-0.1,0.3-10.6,7.1-21.1c9.1-13.8,25.5-21.1,47.6-21.1
		h118.7c0.4,0,0.8-0.3,0.8-0.8V99c0-0.4-0.3-0.8-0.8-0.8H553.3c-0.1,0-0.1,0-0.2,0c-0.4,0.1-37.1,9.4-73.5,33.1
		c-21.4,13.9-38.5,30-50.9,47.7c-15.5,22.2-23.5,47.2-23.8,74.2c-0.5,35.6-0.7,112.1-0.8,201.2H249.5c-0.4,0-0.8,0.3-0.8,0.8v167
		c0,0.2,0.1,0.4,0.2,0.5c0.1,0.1,0.3,0.2,0.5,0.2c0,0,0,0,0,0l154.5-0.4c0,157.3,0.3,302.8,0.3,305.7c0,0.4,0.3,0.7,0.8,0.7h191.5
		c0.4,0,0.8-0.3,0.8-0.8V622.1l150.5-0.4c0.4,0,0.7-0.3,0.7-0.6L774,455.3C774,455.1,773.9,454.9,773.8,454.7z"/>
</g>
</svg>
