<?xml version="1.0" standalone="no"?><!DOCTYPE svg PUBLIC "-//W3C//DTD SVG 1.1//EN" "http://www.w3.org/Graphics/SVG/1.1/DTD/svg11.dtd"><svg t="1651046318821" class="icon" viewBox="0 0 1024 1024" version="1.1" xmlns="http://www.w3.org/2000/svg" p-id="3954" xmlns:xlink="http://www.w3.org/1999/xlink" width="128" height="128"><defs><style type="text/css">@font-face { font-family: feedback-iconfont; src: url("//at.alicdn.com/t/font_1031158_u69w8yhxdu.woff2?t=1630033759944") format("woff2"), url("//at.alicdn.com/t/font_1031158_u69w8yhxdu.woff?t=1630033759944") format("woff"), url("//at.alicdn.com/t/font_1031158_u69w8yhxdu.ttf?t=1630033759944") format("truetype"); }
</style></defs><path d="M896 885.27H94.67c-17.67 0-32-14.33-32-32s14.33-32 32-32H896V546.22c0-17.67 14.33-32 32-32s32 14.33 32 32v275.04c0 35.3-28.71 64.01-64 64.01zM94.67 512.66c-17.67 0-32-14.33-32-32V204.47c0-35.29 28.71-64 64-64H928c17.67 0 32 14.33 32 32s-14.33 32-32 32H126.67v276.19c0 17.67-14.33 32-32 32z" p-id="3955"></path><path d="M859.27 265.93c-8.79 0-17.54-3.6-23.87-10.67-11.78-13.17-10.65-33.4 2.53-45.18l68.74-61.46c13.17-11.78 33.41-10.65 45.18 2.53 11.78 13.17 10.65 33.4-2.53 45.18l-68.74 61.46c-6.09 5.45-13.71 8.14-21.31 8.14zM863.77 288.22c-52.93 0-96 43.07-96 96 0 24.25 9.04 46.43 23.93 63.35L678.02 585.89a95.661 95.661 0 0 0-29.8-4.74c-20.44 0-39.4 6.42-54.98 17.35l-100.62-84.36c5.46-12.05 8.5-25.42 8.5-39.48 0-52.93-43.07-96-96-96s-96 43.07-96 96c0 9.36 1.35 18.42 3.87 26.98l-109.45 85.02c-13.16-6.79-28.07-10.62-43.87-10.62-52.93 0-96 43.07-96 96s43.07 96 96 96 96-43.07 96-96c0-13.7-2.89-26.74-8.09-38.55l102.9-79.93c15.52 10.78 34.35 17.11 54.63 17.11 15.49 0 30.13-3.69 43.1-10.23l107.71 90.31c-2.41 8.4-3.7 17.26-3.7 26.42 0 52.93 43.07 96 96 96s96-43.07 96-96c0-19.23-5.69-37.16-15.47-52.2l119.92-145.92c4.92 0.78 9.95 1.19 15.09 1.19 52.93 0 96-43.07 96-96s-43.06-96.02-95.99-96.02z m-704.1 415.81c-17.67 0-32-14.33-32-32s14.33-32 32-32 32 14.33 32 32-14.33 32-32 32z m245.44-197.37c-17.67 0-32-14.33-32-32s14.33-32 32-32 32 14.33 32 32-14.32 32-32 32z m243.11 202.49c-17.67 0-32-14.33-32-32s14.33-32 32-32 32 14.33 32 32-14.32 32-32 32z m215.55-292.93c-17.67 0-32-14.33-32-32s14.33-32 32-32 32 14.33 32 32-14.33 32-32 32z" p-id="3956"></path></svg>