<?xml version="1.0" standalone="no"?><!DOCTYPE svg PUBLIC "-//W3C//DTD SVG 1.1//EN" "http://www.w3.org/Graphics/SVG/1.1/DTD/svg11.dtd"><svg t="1652862327161" class="icon" viewBox="0 0 1024 1024" version="1.1" xmlns="http://www.w3.org/2000/svg" p-id="3031" xmlns:xlink="http://www.w3.org/1999/xlink" width="128" height="128"><defs><style type="text/css">@font-face { font-family: feedback-iconfont; src: url("//at.alicdn.com/t/font_1031158_u69w8yhxdu.woff2?t=1630033759944") format("woff2"), url("//at.alicdn.com/t/font_1031158_u69w8yhxdu.woff?t=1630033759944") format("woff"), url("//at.alicdn.com/t/font_1031158_u69w8yhxdu.ttf?t=1630033759944") format("truetype"); }
</style></defs><path d="M764.7 162.2c0.2 0.1 0.7 0.5 1.1 1.5l0.8 1.8 0.9 1.8 96.2 184c0.4 1.6 0.3 3.5-0.5 4.9L513.5 861.7l-0.6 0.8-0.5 0.8c-0.2 0.3-0.4 0.6-0.5 0.7-0.1-0.2-0.3-0.4-0.6-0.8l-0.5-0.8-0.5-0.8-347.6-512.5c-0.7-1.4-0.9-3.2-0.4-4.9l94.1-177 1-1.8 0.8-1.8c0.4-1 0.9-1.4 1.1-1.5h505.4m0.2-63.9H259c-25.3 0-48.4 15.2-59.2 39.1L104.3 317c-9.8 21.6-8 46.9 4.6 66.8l348.4 513.8c12.9 20.4 33.8 30.6 54.6 30.6 20.6 0 41.3-10 54.3-30.1l350.7-506.9c12.8-19.8 14.8-45.2 5.1-66.9l-97.6-186.8c-10.9-23.9-34-39.3-59.5-39.3z" p-id="3032"></path><path d="M681 321.5H345c-17.7 0-32 14.3-32 32s14.3 32 32 32h336c17.7 0 32-14.3 32-32s-14.3-32-32-32z" p-id="3033"></path></svg>