<?xml version="1.0" standalone="no"?><!DOCTYPE svg PUBLIC "-//W3C//DTD SVG 1.1//EN" "http://www.w3.org/Graphics/SVG/1.1/DTD/svg11.dtd"><svg t="1651046556013" class="icon" viewBox="0 0 1024 1024" version="1.1" xmlns="http://www.w3.org/2000/svg" p-id="6678" xmlns:xlink="http://www.w3.org/1999/xlink" width="128" height="128"><defs><style type="text/css">@font-face { font-family: feedback-iconfont; src: url("//at.alicdn.com/t/font_1031158_u69w8yhxdu.woff2?t=1630033759944") format("woff2"), url("//at.alicdn.com/t/font_1031158_u69w8yhxdu.woff?t=1630033759944") format("woff"), url("//at.alicdn.com/t/font_1031158_u69w8yhxdu.ttf?t=1630033759944") format("truetype"); }
</style></defs><path d="M653.34 579.81a269.564 269.564 0 0 0 48.38-36.93c51.01-49 79.1-114.24 79.1-183.71s-28.09-134.71-79.1-183.71C651.07 126.8 583.81 100 512.33 100s-138.73 26.8-189.39 75.46c-51.01 49-79.1 114.24-79.1 183.71s28.09 134.71 79.1 183.71a269.114 269.114 0 0 0 50.85 38.4c44.83-17.2 91.66-25.94 139.21-25.94 48.42-0.01 95.81 8.39 140.34 24.47z m-345.5-220.64c0-107.61 91.73-195.17 204.49-195.17s204.49 87.55 204.49 195.17-91.73 195.17-204.49 195.17c-112.75-0.01-204.49-87.56-204.49-195.17z" p-id="6679"></path><path d="M794.14 665.78c-41.18-38.28-89.06-67.31-140.8-85.98-44.53-16.07-91.92-24.47-140.34-24.47-47.55 0-94.38 8.73-139.21 25.94-0.38 0.15-0.77 0.28-1.15 0.43-42.99 16.65-83.09 40.68-119.18 71.41-71.31 60.72-122.05 143.83-142.89 234.02-3.98 17.22 6.76 34.4 23.98 38.38 2.42 0.56 4.85 0.83 7.23 0.83 14.56 0 27.73-10.01 31.15-24.8 37.77-163.52 180.8-282.2 340.07-282.2 88.45 0 172.82 33.14 237.57 93.33 12.94 12.03 33.19 11.29 45.22-1.65 12.03-12.96 11.29-33.2-1.65-45.24z" p-id="6680"></path><path d="M624.11 928.29c-17.67 0-32-14.33-32-32V736.22c0-17.67 14.33-32 32-32s32 14.33 32 32v160.07c0 17.68-14.33 32-32 32zM742.23 928.29c-17.67 0-32-14.33-32-32v-84.55c0-17.67 14.33-32 32-32s32 14.33 32 32v84.55c0 17.68-14.32 32-32 32zM860.35 928.29c-17.67 0-32-14.33-32-32V698.85c0-17.67 14.33-32 32-32s32 14.33 32 32v197.44c0 17.68-14.32 32-32 32z" p-id="6681"></path></svg>