<?xml version="1.0" standalone="no"?><!DOCTYPE svg PUBLIC "-//W3C//DTD SVG 1.1//EN" "http://www.w3.org/Graphics/SVG/1.1/DTD/svg11.dtd"><svg t="1651046542722" class="icon" viewBox="0 0 1024 1024" version="1.1" xmlns="http://www.w3.org/2000/svg" p-id="6374" xmlns:xlink="http://www.w3.org/1999/xlink" width="128" height="128"><defs><style type="text/css">@font-face { font-family: feedback-iconfont; src: url("//at.alicdn.com/t/font_1031158_u69w8yhxdu.woff2?t=1630033759944") format("woff2"), url("//at.alicdn.com/t/font_1031158_u69w8yhxdu.woff?t=1630033759944") format("woff"), url("//at.alicdn.com/t/font_1031158_u69w8yhxdu.ttf?t=1630033759944") format("truetype"); }
</style></defs><path d="M863.07 161.07v702h-702v-702h702m32-64h-766c-17.67 0-32 14.33-32 32v766c0 17.67 14.33 32 32 32h766c17.67 0 32-14.33 32-32v-766c0-17.67-14.32-32-32-32z" p-id="6375"></path><path d="M912.85 341.47H97.07v64h815.78v-64zM781.52 536.41H505.96c-17.67 0-32 14.33-32 32s14.33 32 32 32h275.56c17.67 0 32-14.33 32-32s-14.33-32-32-32zM781.52 682.91H505.96c-17.67 0-32 14.33-32 32s14.33 32 32 32h275.56c17.67 0 32-14.33 32-32s-14.33-32-32-32z" p-id="6376"></path><path d="M405.07 112.59h-64v815.78h64V112.59z" p-id="6377"></path></svg>