<?xml version="1.0" standalone="no"?><!DOCTYPE svg PUBLIC "-//W3C//DTD SVG 1.1//EN" "http://www.w3.org/Graphics/SVG/1.1/DTD/svg11.dtd"><svg t="1652079079401" class="icon" viewBox="0 0 1024 1024" version="1.1" xmlns="http://www.w3.org/2000/svg" p-id="2718" xmlns:xlink="http://www.w3.org/1999/xlink" width="128" height="128"><defs><style type="text/css">@font-face { font-family: feedback-iconfont; src: url("//at.alicdn.com/t/font_1031158_u69w8yhxdu.woff2?t=1630033759944") format("woff2"), url("//at.alicdn.com/t/font_1031158_u69w8yhxdu.woff?t=1630033759944") format("woff"), url("//at.alicdn.com/t/font_1031158_u69w8yhxdu.ttf?t=1630033759944") format("truetype"); }
</style></defs><path d="M860.6 457L235.7 96.2c-10.3-5.9-21.2-8.6-31.8-8.6-33.3 0-63.9 26.7-63.9 63.9V873c0 37.3 30.6 63.9 63.9 63.9 10.6 0 21.5-2.7 31.8-8.6l624.9-360.8c42.6-24.5 42.6-86 0-110.5z m-258-75.1l-74 82.7-235.1-261.2 309.1 178.5zM204 827.5V199.7l281.7 312.9L204 827.5z m324.8-267.1l73.9 82.1-304.8 176 230.9-258.1z m130.6 49.4l-87.7-97.4 87.5-97.8 169.2 97.7-169 97.5z" p-id="2719"></path></svg>