<?xml version="1.0" standalone="no"?><!DOCTYPE svg PUBLIC "-//W3C//DTD SVG 1.1//EN" "http://www.w3.org/Graphics/SVG/1.1/DTD/svg11.dtd"><svg t="1651743733223" class="icon" viewBox="0 0 1024 1024" version="1.1" xmlns="http://www.w3.org/2000/svg" p-id="2808" xmlns:xlink="http://www.w3.org/1999/xlink" width="128" height="128"><defs><style type="text/css">@font-face { font-family: feedback-iconfont; src: url("//at.alicdn.com/t/font_1031158_u69w8yhxdu.woff2?t=1630033759944") format("woff2"), url("//at.alicdn.com/t/font_1031158_u69w8yhxdu.woff?t=1630033759944") format("woff"), url("//at.alicdn.com/t/font_1031158_u69w8yhxdu.ttf?t=1630033759944") format("truetype"); }
</style></defs><path d="M512.8 267.9l16.8-28c9.8-18.2 32.2-23.8 50.4-14 18.2 9.8 23.8 32.2 14 50.4L434.4 549.5h114.9c36.4 0 57.4 43.4 42 74.3H256.5c-21 0-36.4-16.8-36.4-36.4 0-21 16.8-36.4 36.4-36.4h93.9l120.5-210.1-37.9-66c-9.8-18.2-4.2-40.6 14-50.4 18.2-9.8 40.6-4.2 50.4 14l15.4 29.4zM369.9 661.6l-35 61.6c-9.8 18.2-32.2 23.8-50.4 14-18.2-9.8-23.8-32.2-14-50.4l26.6-46.2c29.4-9.9 54.6-2.9 72.8 21z" p-id="2809"></path><path d="M675.3 549.5H772c21 0 36.4 16.8 36.4 36.4 0 21-16.8 36.4-36.4 36.4h-53.2l36.4 63c9.8 18.2 4.2 40.6-14 50.4-18.2 9.8-40.6 4.2-50.4-14-60.3-105-106.5-183.4-135.9-236.7-30.8-53.2-8.4-106.5 12.6-124.7 23.8 43.5 60.2 106.5 107.8 189.2z" p-id="2810"></path><path d="M512 127.3c51.9 0 102.1 10.1 149.4 30.1 45.6 19.3 86.6 46.9 121.8 82.1 35.2 35.2 62.8 76.2 82.1 121.8 19.9 47.2 30.1 97.5 30.1 149.4 0 51.9-10.1 102.1-30.1 149.4-19.3 45.6-46.9 86.6-82.1 121.8-35.2 35.1-76.2 62.8-121.8 82-47.2 20-97.5 30.1-149.4 30.1-51.9 0-102.1-10.1-149.4-30.1-45.6-19.2-86.6-46.9-121.8-82S178 705.7 158.7 660c-19.9-47.2-30.1-97.5-30.1-149.4 0-51.9 10.1-102.1 30.1-149.4 19.3-45.6 46.9-86.6 82.1-121.8 35.2-35.2 76.2-62.8 121.8-82.1 47.3-19.9 97.5-30 149.4-30m0-64c-247.4 0-447.3 199.9-447.3 447.3C64.7 758.1 264.6 958 512 958s447.3-199.9 447.3-447.3c0-247.5-199.9-447.4-447.3-447.4z" p-id="2811"></path></svg>