<?xml version="1.0" standalone="no"?><!DOCTYPE svg PUBLIC "-//W3C//DTD SVG 1.1//EN" "http://www.w3.org/Graphics/SVG/1.1/DTD/svg11.dtd"><svg t="1651046362212" class="icon" viewBox="0 0 1024 1024" version="1.1" xmlns="http://www.w3.org/2000/svg" p-id="4105" xmlns:xlink="http://www.w3.org/1999/xlink" width="128" height="128"><defs><style type="text/css">@font-face { font-family: feedback-iconfont; src: url("//at.alicdn.com/t/font_1031158_u69w8yhxdu.woff2?t=1630033759944") format("woff2"), url("//at.alicdn.com/t/font_1031158_u69w8yhxdu.woff?t=1630033759944") format("woff"), url("//at.alicdn.com/t/font_1031158_u69w8yhxdu.ttf?t=1630033759944") format("truetype"); }
</style></defs><path d="M864.5 162.23v549.88H162.73V162.23H864.5m32-64H130.73c-17.67 0-32 14.33-32 32v613.88c0 17.67 14.33 32 32 32H896.5c17.67 0 32-14.33 32-32V130.23c0-17.68-14.33-32-32-32zM860.17 925.09H163.41c-17.67 0-32-14.33-32-32s14.33-32 32-32h696.76c17.67 0 32 14.33 32 32s-14.33 32-32 32z" p-id="4106"></path><path d="M319.83 644.95c-17.67 0-32-14.33-32-32V413.5c0-17.67 14.33-32 32-32s32 14.33 32 32v199.44c0 17.68-14.32 32.01-32 32.01zM511.83 644.95c-17.67 0-32-14.33-32-32V337c0-17.67 14.33-32 32-32s32 14.33 32 32v275.95c0 17.67-14.32 32-32 32zM703.83 644.95c-17.67 0-32-14.33-32-32V265.89c0-17.67 14.33-32 32-32s32 14.33 32 32v347.06c0 17.67-14.32 32-32 32z" p-id="4107"></path></svg>