<?xml version="1.0" standalone="no"?><!DOCTYPE svg PUBLIC "-//W3C//DTD SVG 1.1//EN" "http://www.w3.org/Graphics/SVG/1.1/DTD/svg11.dtd"><svg t="1650869648479" class="icon" viewBox="0 0 1024 1024" version="1.1" xmlns="http://www.w3.org/2000/svg" p-id="2205" xmlns:xlink="http://www.w3.org/1999/xlink" width="128" height="128"><defs><style type="text/css">@font-face { font-family: feedback-iconfont; src: url("//at.alicdn.com/t/font_1031158_u69w8yhxdu.woff2?t=1630033759944") format("woff2"), url("//at.alicdn.com/t/font_1031158_u69w8yhxdu.woff?t=1630033759944") format("woff"), url("//at.alicdn.com/t/font_1031158_u69w8yhxdu.ttf?t=1630033759944") format("truetype"); }
</style></defs><path d="M864 162.23v701.99H162V162.23h702m32-64H130c-17.67 0-32 14.33-32 32v765.99c0 17.67 14.33 32 32 32h766c17.67 0 32-14.33 32-32V130.23c0-17.68-14.33-32-32-32z" p-id="2206"></path><path d="M672.18 162.15v215.73h-320V162.15h320m32-64h-384c-17.67 0-32 14.33-32 32v279.73c0 17.67 14.33 32 32 32h384c17.67 0 32-14.33 32-32V130.15c0-17.67-14.33-32-32-32zM705 640.22H321c-17.67 0-32 14.33-32 32s14.33 32 32 32h384c17.67 0 32-14.33 32-32s-14.33-32-32-32z" p-id="2207"></path></svg>