<?xml version="1.0" standalone="no"?><!DOCTYPE svg PUBLIC "-//W3C//DTD SVG 1.1//EN" "http://www.w3.org/Graphics/SVG/1.1/DTD/svg11.dtd"><svg t="1668567636188" class="icon" viewBox="0 0 1024 1024" version="1.1" xmlns="http://www.w3.org/2000/svg" p-id="3738" xmlns:xlink="http://www.w3.org/1999/xlink" width="128" height="128"><path d="M224.4 960.2c-15.9 0-31.7-6-44-17.8-21-19.9-26-50.6-12.5-76.2l0.7-1.3L356 545.8l-139.9-0.6c-21.6-0.1-41.6-11-53.3-29.1-11.8-18.1-13.6-40.8-4.9-60.5l153.4-350.1 29.3 12.8-29.3-12.8c10.2-23.3 33.2-38.3 58.6-38.3H728c21.5 0 41.5 10.7 53.4 28.7 11.9 18 13.9 40.5 5.5 60.4L648.7 480.8h158.1c28.3 0 52.9 18.2 61.2 45.3s-1.9 55.9-25.4 71.8l-1.4 0.9-584 352.3-0.1 0.1c-10.2 6-21.5 9-32.7 9z m-8-479.1l140 0.6c22.6 0.1 43 11.7 54.6 31.1 11.6 19.3 12.3 42.8 1.8 62.7l-0.7 1.3L224.6 896l582.1-351.2h-158c-21.5 0-41.5-10.7-53.4-28.7-11.9-18-13.9-40.5-5.5-60.4L727.9 131H369.8L216.4 481.1z m-0.1 0.1zM728 130.9z" p-id="3739"></path></svg>