<svg t="1654162873001" class="icon" viewBox="0 0 1024 1024" version="1.1" xmlns="http://www.w3.org/2000/svg" p-id="3304" width="200" height="200"><path d="M596.5 927.2c-41.1 0-79.1-20.6-101.7-55.9L368.1 672.9c-4.4-6.9-10.4-12.9-17.3-17.3L153.5 529.2c-39.2-25.1-60.3-69.5-54.9-115.8 5.4-46.3 36-84.7 79.9-100.2l584.2-206.4c44.4-15.7 92.6-4.8 125.9 28.5 33.3 33.2 44.2 81.5 28.6 125.8L710.9 846.4c-15.5 44-53.9 74.7-100.3 80-4.7 0.6-9.4 0.8-14.1 0.8z m187.6-760.1L199.9 373.5c-21 7.4-35.1 25.1-37.6 47.2-2.6 22.1 7.1 42.5 25.9 54.6l197.3 126.5c14.6 9.4 27.3 22.1 36.7 36.7l126.7 198.4c12 18.8 32.4 28.5 54.6 26 22.2-2.6 39.8-16.6 47.2-37.7L857 239.8c7.5-21.2 2.4-43.4-13.5-59.3-16-15.9-38.2-20.9-59.4-13.4z" p-id="3305" fill="#c0c4cc"></path><path d="M490.7 565.3c-8.2 0-16.4-3.1-22.6-9.4-12.5-12.5-12.5-32.8 0-45.3L701 277.7c12.5-12.5 32.8-12.5 45.3 0s12.5 32.8 0 45.3l-233 233c-6.3 6.2-14.4 9.3-22.6 9.3z" p-id="3306" fill="#c0c4cc"></path></svg>