<?xml version="1.0" standalone="no"?><!DOCTYPE svg PUBLIC "-//W3C//DTD SVG 1.1//EN" "http://www.w3.org/Graphics/SVG/1.1/DTD/svg11.dtd"><svg t="1658914868024" class="icon" viewBox="0 0 1024 1024" version="1.1" xmlns="http://www.w3.org/2000/svg" p-id="3348" xmlns:xlink="http://www.w3.org/1999/xlink" width="128" height="128"><defs><style type="text/css">@font-face { font-family: feedback-iconfont; src: url("//at.alicdn.com/t/font_1031158_u69w8yhxdu.woff2?t=1630033759944") format("woff2"), url("//at.alicdn.com/t/font_1031158_u69w8yhxdu.woff?t=1630033759944") format("woff"), url("//at.alicdn.com/t/font_1031158_u69w8yhxdu.ttf?t=1630033759944") format("truetype"); }
</style></defs><path d="M681.3 97.2H162.2c-35.3 0-64 28.7-64 64v700.1c0 35.3 28.7 64 64 64H448c17.7 0 32-14.3 32-32s-14.3-32-32-32H162.2v-35.5l246.6-200c15.1-12.2 23.7-30.4 23.7-49.8l-0.3-198.6c0-24.3-13.5-46.1-35.2-57L162.2 201.7v-40.5h519.1V296c0 17.7 14.3 32 32 32s32-14.3 32-32V161.2c0-35.3-28.8-64-64-64zM368.2 377.4l0.3 198.6-206.3 167.4v-470l206 104z" p-id="3349"></path><path d="M719.7 600.7c-68.8 0-124.8-56-124.8-124.8s56-124.8 124.8-124.8 124.8 56 124.8 124.8c-0.1 68.8-56 124.8-124.8 124.8z m0-185.5c-33.5 0-60.8 27.3-60.8 60.8s27.3 60.8 60.8 60.8 60.8-27.3 60.8-60.8c-0.1-33.5-27.3-60.8-60.8-60.8zM927.1 928.2H512.2v-32c0-62 21-120.4 59.2-164.6 39.3-45.5 92-70.6 148.3-70.6s109 25.1 148.3 70.6c38.2 44.2 59.2 102.7 59.2 164.6v32z m-348.4-64h281.9C848 785 789.6 725 719.7 725s-128.4 60-141 139.2z" p-id="3350"></path></svg>