<?xml version="1.0" encoding="utf-8"?>
<!-- Generator: Adobe Illustrator 26.0.1, SVG Export Plug-In . SVG Version: 6.00 Build 0)  -->
<svg version="1.1" id="图层_1" xmlns="http://www.w3.org/2000/svg" xmlns:xlink="http://www.w3.org/1999/xlink" x="0px" y="0px"
	 viewBox="0 0 1024 1024" style="enable-background:new 0 0 1024 1024;" xml:space="preserve">
<style type="text/css">
	.st0{opacity:0;}
</style>
<g>
	<rect x="0" y="0" class="st0" width="1024" height="1024"/>
	<g>
		<path d="M295.8,909.9c-13.3,0-26.5-4.2-37.7-12.3c-19.9-14.5-29.7-38.6-25.6-62.9l35.4-206.5c0-0.1,0-0.2-0.1-0.3l-150-146.2
			c-17.7-17.2-23.9-42.5-16.3-65.9s27.5-40.2,51.9-43.8l207.3-30.1c0.1,0,0.2-0.1,0.2-0.2l92.7-187.9c10.9-22.1,33-35.8,57.6-35.8
			c0,0,0,0,0,0c24.6,0,46.7,13.7,57.6,35.8l91.7,185.9l1.2,0.2l208.5,30.3l1.1,0.3c24.2,5.3,43.5,23.4,50.2,47.2
			c6.6,23.3,0.3,47.2-16.9,64l-150,146.2c-0.1,0.1-0.1,0.2-0.1,0.3l35.4,206.5c4.2,24.3-5.6,48.4-25.6,62.9
			c-19.9,14.5-45.9,16.4-67.7,4.9l-185.4-97.5c-0.1,0-0.2,0-0.3,0l-185.4,97.5C316.3,907.4,306,909.9,295.8,909.9z M295.7,845.9
			L295.7,845.9L295.7,845.9z M511.4,740.9c10.3,0,20.5,2.5,29.9,7.4l185.4,97.5c0.1,0,0.1,0.1,0.1,0.1c0.1,0,0.2-0.1,0.3-0.2
			c0,0,0-0.1,0-0.2L691.7,639c-3.6-20.9,3.3-42.1,18.5-56.9l150-146.2c0,0,0.1-0.1,0.1-0.1c0-0.4-0.3-2-2-2.6l-203.3-29.5
			c-21.2-0.5-40.8-13.3-50.7-33.5l-92.7-187.9c0-0.1-0.1-0.1-0.1-0.1c-0.1,0-0.2,0-0.4,0c0,0,0,0.1-0.1,0.1l-92.7,187.9
			c-9.4,19-27.5,32.1-48.4,35.2l-207.3,30.1c-0.1,0-0.1,0-0.2,0c0,0.1-0.1,0.2-0.1,0.3c0,0,0.1,0.1,0.1,0.1l150,146.2
			c15.2,14.8,22.1,36,18.5,56.9l-35.4,206.5c0,0.1,0,0.1,0,0.2c0.1,0.1,0.2,0.2,0.3,0.2c0,0,0.1,0,0.1-0.1l185.4-97.5
			C490.8,743.4,501.1,740.9,511.4,740.9z M162.4,435.4C162.4,435.4,162.4,435.4,162.4,435.4L162.4,435.4z"/>
	</g>
</g>
</svg>
