<svg t="1653294410632" class="icon" viewBox="0 0 1024 1024" version="1.1" xmlns="http://www.w3.org/2000/svg" p-id="3035" width="200" height="200"><path d="M713.4 164.9L913.8 512 713.4 859.1H312.6L112.2 512l200.4-347.1h400.8m0-64H312.6c-22.8 0-43.9 12.2-55.4 32L56.8 480a63.971 63.971 0 0 0 0 63.9l200.4 347.2c11.4 19.8 32.5 32 55.4 32h400.9c22.8 0 43.9-12.2 55.4-32L969.2 544c11.4-19.8 11.4-44.1 0-63.9L768.8 132.9c-11.4-19.8-32.5-32-55.4-32z" fill="#B2B2B2" p-id="3036"></path><path d="M512 387.3c33.6 0 65.3 13.1 89.1 36.9s36.9 55.4 36.9 89.1-13.1 65.3-36.9 89.1c-23.8 23.8-55.4 36.9-89.1 36.9s-65.3-13.1-89.1-36.9C399.1 578.6 386 547 386 513.3s13.1-65.3 36.9-89.1c23.8-23.8 55.5-36.9 89.1-36.9m0-64c-104.9 0-189.9 85-189.9 189.9s85 189.9 189.9 189.9 189.9-85 189.9-189.9-85-189.9-189.9-189.9z" fill="#B2B2B2" p-id="3037"></path></svg>