<svg t="1655951252685" class="icon" viewBox="0 0 1024 1024" version="1.1" xmlns="http://www.w3.org/2000/svg" p-id="3090" width="200" height="200"><path d="M265.45 679.67C173.67 679.67 99 605 99 513.22c0-91.78 74.67-166.44 166.44-166.44 91.78 0 166.44 74.67 166.44 166.44 0.01 91.78-74.66 166.45-166.43 166.45z m0-268.89c-56.49 0-102.44 45.95-102.44 102.44 0 56.49 45.96 102.44 102.44 102.44 56.49 0 102.44-45.96 102.44-102.44s-45.96-102.44-102.44-102.44zM758.55 434.11c-91.78 0-166.44-74.67-166.44-166.44s74.67-166.44 166.44-166.44S925 175.89 925 267.67s-74.67 166.44-166.45 166.44z m0-268.88c-56.49 0-102.44 45.96-102.44 102.44s45.96 102.44 102.44 102.44S861 324.16 861 267.67s-45.96-102.44-102.45-102.44zM758.55 927.03c-91.78 0-166.44-74.67-166.44-166.44s74.67-166.44 166.44-166.44S925 668.81 925 760.58s-74.67 166.45-166.45 166.45z m0-268.89c-56.49 0-102.44 45.96-102.44 102.44 0 56.49 45.96 102.44 102.44 102.44S861 817.07 861 760.58c0-56.48-45.96-102.44-102.45-102.44z" p-id="3091" fill="#303133"></path><path d="M391.039 603.127l30.521-56.25 238.138 129.216-30.521 56.25zM393.146 417.54l238.153-107.835 26.4 58.304-238.153 107.835z" p-id="3092" fill="#303133"></path></svg>