<?xml version="1.0" standalone="no"?><!DOCTYPE svg PUBLIC "-//W3C//DTD SVG 1.1//EN" "http://www.w3.org/Graphics/SVG/1.1/DTD/svg11.dtd"><svg t="1667543692458" class="icon" viewBox="0 0 1024 1024" version="1.1" xmlns="http://www.w3.org/2000/svg" p-id="4073" xmlns:xlink="http://www.w3.org/1999/xlink" width="64" height="64"><path d="M336.1 927.4c-17.7 0-32-14.3-32-32V718.7H130.3c-17.7 0-32-14.3-32-32s14.3-32 32-32h173.8c35.3 0 64 28.7 64 64v176.7c0 17.6-14.3 32-32 32zM688.9 927.4c-17.7 0-32-14.3-32-32v-176c0-35.3 28.7-64 64-64h177.4c17.7 0 32 14.3 32 32s-14.3 32-32 32H720.9v176c0 17.6-14.3 32-32 32zM898.3 370.3H725.2c-35.3 0-64-28.7-64-64v-179c0-17.7 14.3-32 32-32s32 14.3 32 32v179h173.1c17.7 0 32 14.3 32 32s-14.3 32-32 32zM304.1 371.3H130.3c-17.7 0-32-14.3-32-32s14.3-32 32-32h173.8v-180c0-17.7 14.3-32 32-32s32 14.3 32 32v180c0 35.3-28.7 64-64 64z" p-id="4074"></path></svg>