<?xml version="1.0" encoding="utf-8"?>
<!-- Generator: Adobe Illustrator 26.0.1, SVG Export Plug-In . SVG Version: 6.00 Build 0)  -->
<svg version="1.1" id="图层_1" xmlns="http://www.w3.org/2000/svg" xmlns:xlink="http://www.w3.org/1999/xlink" x="0px" y="0px"
	 viewBox="0 0 1024 1024" style="enable-background:new 0 0 1024 1024;" xml:space="preserve">
<style type="text/css">
	.st0{opacity:0;}
	.st1{fill:#333333;}
</style>
<g>
	<rect x="0" class="st0" width="1024" height="1024"/>
	<g>
		<path class="st1" d="M511.8,958.3c-60.3,0-118.7-11.8-173.8-35.1c-53.2-22.5-100.9-54.7-141.9-95.7s-73.2-88.7-95.7-141.9
			c-23.3-55.1-35.1-113.5-35.1-173.8c0-60.3,11.8-118.7,35.1-173.8c22.5-53.2,54.7-100.9,95.7-141.9s88.7-73.2,141.9-95.7
			c55.1-23.3,113.5-35.1,173.8-35.1c60.3,0,118.7,11.8,173.8,35.1c53.2,22.5,100.9,54.7,141.9,95.7s73.2,88.7,95.7,141.9
			c23.3,55.1,35.1,113.5,35.1,173.8c0,60.3-11.8,118.7-35.1,173.8c-22.5,53.2-54.7,100.9-95.7,141.9c-41,41-88.7,73.2-141.9,95.7
			C630.6,946.5,572.1,958.3,511.8,958.3z M511.8,129.4c-210.9,0-382.5,171.6-382.5,382.5c0,210.9,171.6,382.5,382.5,382.5
			c210.9,0,382.5-171.6,382.5-382.5C894.3,300.9,722.7,129.4,511.8,129.4z"/>
	</g>
	<g>
		<path class="st1" d="M415.8,721.8c-11.1,0-22.1-2.9-32.2-8.7c-20.2-11.6-32.2-32.5-32.2-55.8V367.2c0-23.3,12-44.2,32.2-55.8
			c20.2-11.6,44.3-11.6,64.4,0l251.3,145.1c20.2,11.6,32.2,32.5,32.2,55.8c0,23.3-12,44.2-32.2,55.8L448,713.1
			C437.9,718.9,426.8,721.8,415.8,721.8z M415.4,366.9c0,0,0,0.1,0,0.2v290.1c0,0.2,0,0.3,0,0.3c0,0,0.3,0.2,0.4,0.2
			c0,0,0.1,0,0.2-0.1l251.3-145.1c0.2-0.1,0.2-0.1,0.2-0.1c0-0.1,0-0.3,0-0.5c0,0-0.1-0.1-0.2-0.1L416,366.8
			c-0.2-0.1-0.2-0.1-0.2-0.1C415.7,366.7,415.5,366.8,415.4,366.9z"/>
	</g>
</g>
</svg>
