<?xml version="1.0" encoding="utf-8"?>
<!-- Generator: Adobe Illustrator 26.0.1, SVG Export Plug-In . SVG Version: 6.00 Build 0)  -->
<svg version="1.1" id="图层_1" xmlns="http://www.w3.org/2000/svg" xmlns:xlink="http://www.w3.org/1999/xlink" x="0px" y="0px"
	 viewBox="0 0 1024 1024" style="enable-background:new 0 0 1024 1024;" xml:space="preserve">
<style type="text/css">
	.st0{opacity:0;}
</style>
<g>
	<rect x="0" class="st0" width="1024" height="1024"/>
	<g>
		<path d="M511.8,958.3c-60.3,0-118.7-11.8-173.8-35.1c-53.2-22.5-100.9-54.7-141.9-95.7c-41-41-73.2-88.7-95.7-141.9
			c-23.3-55.1-35.1-113.5-35.1-173.8S77.2,393.1,100.5,338c22.5-53.2,54.7-100.9,95.7-141.9c41-41,88.7-73.2,141.9-95.7
			c55.1-23.3,113.5-35.1,173.8-35.1c60.3,0,118.7,11.8,173.8,35.1c53.2,22.5,100.9,54.7,141.9,95.7c41,41,73.2,88.7,95.7,141.9
			c23.3,55.1,35.1,113.5,35.1,173.8s-11.8,118.7-35.1,173.8c-22.5,53.2-54.7,100.9-95.7,141.9c-41,41-88.7,73.2-141.9,95.7
			C630.6,946.5,572.1,958.3,511.8,958.3z M511.8,129.4c-210.9,0-382.5,171.6-382.5,382.5s171.6,382.5,382.5,382.5
			c210.9,0,382.5-171.6,382.5-382.5S722.7,129.4,511.8,129.4z"/>
	</g>
	<path d="M711.7,545.2H314.3c-17.7,0-32-14.3-32-32v0c0-17.7,14.3-32,32-32h397.4c17.7,0,32,14.3,32,32v0
		C743.7,530.9,729.4,545.2,711.7,545.2z"/>
</g>
</svg>
