<?xml version="1.0" standalone="no"?><!DOCTYPE svg PUBLIC "-//W3C//DTD SVG 1.1//EN" "http://www.w3.org/Graphics/SVG/1.1/DTD/svg11.dtd"><svg t="1651046529123" class="icon" viewBox="0 0 1024 1024" version="1.1" xmlns="http://www.w3.org/2000/svg" p-id="6072" xmlns:xlink="http://www.w3.org/1999/xlink" width="128" height="128"><defs><style type="text/css">@font-face { font-family: feedback-iconfont; src: url("//at.alicdn.com/t/font_1031158_u69w8yhxdu.woff2?t=1630033759944") format("woff2"), url("//at.alicdn.com/t/font_1031158_u69w8yhxdu.woff?t=1630033759944") format("woff"), url("//at.alicdn.com/t/font_1031158_u69w8yhxdu.ttf?t=1630033759944") format("truetype"); }
</style></defs><path d="M896.16 243.42H130.5c-17.67 0-32-14.33-32-32s14.33-32 32-32h765.66c17.67 0 32 14.33 32 32s-14.32 32-32 32zM896.16 545.57H130.5c-17.67 0-32-14.33-32-32s14.33-32 32-32h765.66c17.67 0 32 14.33 32 32s-14.32 32-32 32zM896.16 846.72H130.5c-17.67 0-32-14.33-32-32s14.33-32 32-32h765.66c17.67 0 32 14.33 32 32 0 17.68-14.32 32-32 32z" p-id="6073"></path><path d="M736.67 323.42c-17.67 0-32-14.33-32-32v-160c0-17.67 14.33-32 32-32s32 14.33 32 32v160c0 17.67-14.33 32-32 32zM736.67 926.72c-17.67 0-32-14.33-32-32v-160c0-17.67 14.33-32 32-32s32 14.33 32 32v160c0 17.68-14.33 32-32 32zM288.38 625.57c-17.67 0-32-14.33-32-32v-160c0-17.67 14.33-32 32-32s32 14.33 32 32v160c0 17.67-14.32 32-32 32z" p-id="6074"></path></svg>