<?xml version="1.0" standalone="no"?><!DOCTYPE svg PUBLIC "-//W3C//DTD SVG 1.1//EN" "http://www.w3.org/Graphics/SVG/1.1/DTD/svg11.dtd"><svg t="1651046438068" class="icon" viewBox="0 0 1024 1024" version="1.1" xmlns="http://www.w3.org/2000/svg" p-id="5617" xmlns:xlink="http://www.w3.org/1999/xlink" width="128" height="128"><defs><style type="text/css">@font-face { font-family: feedback-iconfont; src: url("//at.alicdn.com/t/font_1031158_u69w8yhxdu.woff2?t=1630033759944") format("woff2"), url("//at.alicdn.com/t/font_1031158_u69w8yhxdu.woff?t=1630033759944") format("woff"), url("//at.alicdn.com/t/font_1031158_u69w8yhxdu.ttf?t=1630033759944") format("truetype"); }
</style></defs><path d="M895.33 194.33v636h-768v-636h768m32-64h-832c-17.67 0-32 14.33-32 32v700c0 17.67 14.33 32 32 32h832c17.67 0 32-14.33 32-32v-700c0-17.67-14.32-32-32-32z" p-id="5618"></path><path d="M424.38 601.37c-99.35 0-180.18-78.21-180.18-174.34s80.83-174.34 180.18-174.34c99.35 0 180.18 78.21 180.18 174.34s-80.82 174.34-180.18 174.34z m0-284.69c-64.06 0-116.18 49.5-116.18 110.34s52.12 110.34 116.18 110.34 116.18-49.5 116.18-110.34-52.11-110.34-116.18-110.34z" p-id="5619"></path><path d="M190.25 793.32c-1.72 0-3.47-0.14-5.22-0.43-17.44-2.86-29.26-19.32-26.4-36.76 9.95-60.6 42.11-116.08 90.58-156.23 48.69-40.33 110.89-62.54 175.13-62.54 64.11 0 126.2 22.13 174.84 62.3 48.41 39.98 80.64 95.28 90.74 155.7 2.92 17.43-8.85 33.93-26.28 36.84-17.43 2.92-33.92-8.85-36.84-26.28-15.95-95.36-101.1-164.57-202.46-164.57-101.67 0-186.85 69.45-202.56 165.14-2.56 15.7-16.14 26.83-31.53 26.83zM828.33 353.67h-140c-17.67 0-32-14.33-32-32s14.33-32 32-32h140c17.67 0 32 14.33 32 32s-14.32 32-32 32zM828.33 464.9h-140c-17.67 0-32-14.33-32-32s14.33-32 32-32h140c17.67 0 32 14.33 32 32s-14.32 32-32 32zM828.33 576.13h-140c-17.67 0-32-14.33-32-32s14.33-32 32-32h140c17.67 0 32 14.33 32 32s-14.32 32-32 32z" p-id="5620"></path></svg>