<?xml version="1.0" standalone="no"?><!DOCTYPE svg PUBLIC "-//W3C//DTD SVG 1.1//EN" "http://www.w3.org/Graphics/SVG/1.1/DTD/svg11.dtd"><svg t="1651046413076" class="icon" viewBox="0 0 1024 1024" version="1.1" xmlns="http://www.w3.org/2000/svg" p-id="5013" xmlns:xlink="http://www.w3.org/1999/xlink" width="128" height="128"><defs><style type="text/css">@font-face { font-family: feedback-iconfont; src: url("//at.alicdn.com/t/font_1031158_u69w8yhxdu.woff2?t=1630033759944") format("woff2"), url("//at.alicdn.com/t/font_1031158_u69w8yhxdu.woff?t=1630033759944") format("woff"), url("//at.alicdn.com/t/font_1031158_u69w8yhxdu.ttf?t=1630033759944") format("truetype"); }
</style></defs><path d="M513 285.11c41.22 0 81.17 8.06 118.74 23.95 36.32 15.36 68.96 37.37 97 65.41 28.04 28.04 50.05 60.68 65.41 97 15.89 37.57 23.95 77.52 23.95 118.74s-8.06 81.17-23.95 118.74c-15.36 36.32-37.37 68.96-65.41 97-28.04 28.04-60.68 50.05-97 65.41-37.57 15.89-77.52 23.95-118.74 23.95s-81.17-8.06-118.74-23.95c-36.32-15.36-68.96-37.37-97-65.41-28.04-28.04-50.05-60.68-65.41-97-15.89-37.57-23.95-77.52-23.95-118.74s8.06-81.17 23.95-118.74c15.36-36.32 37.37-68.96 65.41-97 28.04-28.04 60.68-50.05 97-65.41 37.57-15.89 77.52-23.95 118.74-23.95m0-64c-203.85 0-369.11 165.26-369.11 369.11S309.15 959.33 513 959.33s369.11-165.26 369.11-369.11S716.85 221.11 513 221.11z" p-id="5014"></path><path d="M648.07 796.67c-8.1 0-16.2-3.05-22.43-9.17L498.31 662.37c-12.08-11.98-18.99-28.62-18.93-45.64l0.62-179.29c0.06-17.63 14.38-31.89 32-31.89h0.11c17.67 0.06 31.95 14.44 31.89 32.11l-0.63 179.26L670.5 741.84c12.61 12.39 12.78 32.65 0.4 45.25-6.26 6.38-14.54 9.58-22.83 9.58zM698.83 127.95h-372c-17.67 0-32-14.33-32-32s14.33-32 32-32h372c17.67 0 32 14.33 32 32s-14.32 32-32 32z" p-id="5015"></path><path d="M480.83 100.05h64v133.33h-64z" p-id="5016"></path></svg>