<svg t="1652757544534" class="icon" viewBox="0 0 1024 1024" version="1.1" xmlns="http://www.w3.org/2000/svg" p-id="2994" width="200" height="200"><path d="M512.2 127.9c42.5 0 83.8 8.3 122.5 24.7 37.5 15.9 71.2 38.6 100.1 67.5 28.9 28.9 51.6 62.6 67.5 100.1 16.4 38.8 24.7 80 24.7 122.5 0 56.2-41.9 141.7-118 240.9-67.2 87.6-148 168.6-196.8 211.4-48.8-42.8-129.6-123.8-196.8-211.4-76.1-99.1-118-184.7-118-240.9 0-42.5 8.3-83.8 24.7-122.5 15.9-37.5 38.6-71.2 67.5-100.1s62.6-51.6 100.1-67.5c38.7-16.3 79.9-24.7 122.5-24.7m0-64c-209.2 0-378.8 169.6-378.8 378.8 0 165.8 237.8 413.7 336.6 500.3 12.1 10.6 27.2 15.9 42.2 15.9 15.1 0 30.1-5.3 42.2-15.9C653.2 856.5 891 608.6 891 442.8c0-209.2-169.6-378.9-378.8-378.9z" fill="#bfbfbf" p-id="2995"></path><path d="M513 312.5c34 0 66 13.2 90 37.3 24 24 37.3 56 37.3 90s-13.2 66-37.3 90c-24 24-56 37.3-90 37.3s-66-13.2-90-37.3c-24-24-37.3-56-37.3-90s13.2-66 37.3-90c24-24 56-37.3 90-37.3m0-64c-105.6 0-191.3 85.6-191.3 191.3S407.4 631.1 513 631.1s191.3-85.6 191.3-191.3S618.6 248.5 513 248.5z" fill="#bfbfbf" p-id="2996"></path></svg>