<?xml version="1.0" standalone="no"?><!DOCTYPE svg PUBLIC "-//W3C//DTD SVG 1.1//EN" "http://www.w3.org/Graphics/SVG/1.1/DTD/svg11.dtd"><svg t="1661168581516" class="icon" viewBox="0 0 1024 1024" version="1.1" xmlns="http://www.w3.org/2000/svg" p-id="3640" xmlns:xlink="http://www.w3.org/1999/xlink" width="200" height="200"><defs><style type="text/css">@font-face { font-family: feedback-iconfont; src: url("//at.alicdn.com/t/font_1031158_u69w8yhxdu.woff2?t=1630033759944") format("woff2"), url("//at.alicdn.com/t/font_1031158_u69w8yhxdu.woff?t=1630033759944") format("woff"), url("//at.alicdn.com/t/font_1031158_u69w8yhxdu.ttf?t=1630033759944") format("truetype"); }
</style></defs><path d="M874.7 343.7c-11.2 0-22.1-5.9-28-16.5-36.2-65-90-117.8-155.7-152.6-15.6-8.3-21.6-27.6-13.3-43.3 8.3-15.6 27.6-21.6 43.3-13.3 76.6 40.6 139.5 102.2 181.6 178.1 8.6 15.4 3 34.9-12.4 43.5-4.9 2.8-10.2 4.1-15.5 4.1zM149.3 343.7c-5.3 0-10.6-1.3-15.5-4-15.4-8.6-21-28.1-12.4-43.5 42.2-75.8 105-137.4 181.6-178.1 15.6-8.3 35-2.3 43.3 13.3 8.3 15.6 2.3 35-13.3 43.3-65.7 34.8-119.5 87.6-155.7 152.6-5.9 10.4-16.8 16.4-28 16.4zM829 783.7l-80.3-80.3c43.8-54 67.7-120.9 67.7-191.4 0-81.3-31.7-157.7-89.1-215.2-57.5-57.5-133.9-89.1-215.2-89.1-81.3 0-157.7 31.7-215.2 89.1S207.7 430.7 207.7 512c0 70.5 23.8 137.4 67.7 191.4l-79.7 79.7c-12.5 12.5-12.5 32.8 0 45.3 6.2 6.2 14.4 9.4 22.6 9.4s16.4-3.1 22.6-9.4l79.7-79.7c54 43.8 120.9 67.7 191.4 67.7s137.4-23.8 191.4-67.7l80.3 80.3c6.2 6.2 14.4 9.4 22.6 9.4s16.4-3.1 22.6-9.4c12.6-12.5 12.6-32.8 0.1-45.3zM271.7 512c0-132.5 107.8-240.3 240.3-240.3S752.3 379.5 752.3 512 644.5 752.3 512 752.3 271.7 644.5 271.7 512z" p-id="3641"></path><path d="M623.7 655.7c-8.2 0-16.4-3.1-22.6-9.4L498.7 544c-12-12-18.7-28-18.7-45l-0.5-145.8c-0.1-17.7 14.2-32 31.9-32.1h0.1c17.6 0 31.9 14.3 32 31.9l0.5 145.8L646.3 601c12.5 12.5 12.5 32.8 0 45.3-6.3 6.2-14.4 9.4-22.6 9.4z" p-id="3642"></path></svg>