<?xml version="1.0" standalone="no"?><!DOCTYPE svg PUBLIC "-//W3C//DTD SVG 1.1//EN" "http://www.w3.org/Graphics/SVG/1.1/DTD/svg11.dtd"><svg t="1651049490596" class="icon" viewBox="0 0 1024 1024" version="1.1" xmlns="http://www.w3.org/2000/svg" p-id="2735" xmlns:xlink="http://www.w3.org/1999/xlink" width="128" height="128"><defs><style type="text/css">@font-face { font-family: feedback-iconfont; src: url("//at.alicdn.com/t/font_1031158_u69w8yhxdu.woff2?t=1630033759944") format("woff2"), url("//at.alicdn.com/t/font_1031158_u69w8yhxdu.woff?t=1630033759944") format("woff"), url("//at.alicdn.com/t/font_1031158_u69w8yhxdu.ttf?t=1630033759944") format("truetype"); }
</style></defs><path d="M895.9 864.12h-26.04V391.35c0-33.19-27-60.19-60.19-60.19h-206.1V134.05c0-17.67-14.33-32-32-32h-383c-17.67 0-32 14.33-32 32v730.07H129.9c-17.67 0-32 14.33-32 32s14.33 32 32 32h766c17.67 0 32-14.33 32-32s-14.33-32-32-32z m-356.33-1.89h-319V166.05h319v696.18z m64-467.07h202.29v468.96H603.57V395.16z" p-id="2736"></path><path d="M461.68 289.63H315.79c-17.67 0-32 14.33-32 32s14.33 32 32 32h145.89c17.67 0 32-14.33 32-32s-14.33-32-32-32zM461.68 481.12H315.79c-17.67 0-32 14.33-32 32s14.33 32 32 32h145.89c17.67 0 32-14.33 32-32s-14.33-32-32-32zM461.68 672.62H315.79c-17.67 0-32 14.33-32 32s14.33 32 32 32h145.89c17.67 0 32-14.33 32-32s-14.33-32-32-32zM743.73 499.4h-77.99c-17.67 0-32 14.33-32 32s14.33 32 32 32h77.99c17.67 0 32-14.33 32-32s-14.33-32-32-32zM743.73 678.67h-77.99c-17.67 0-32 14.33-32 32s14.33 32 32 32h77.99c17.67 0 32-14.33 32-32s-14.33-32-32-32z" p-id="2737"></path></svg>