<?xml version="1.0" standalone="no"?><!DOCTYPE svg PUBLIC "-//W3C//DTD SVG 1.1//EN" "http://www.w3.org/Graphics/SVG/1.1/DTD/svg11.dtd"><svg t="1651046536112" class="icon" viewBox="0 0 1024 1024" version="1.1" xmlns="http://www.w3.org/2000/svg" p-id="6223" xmlns:xlink="http://www.w3.org/1999/xlink" width="128" height="128"><defs><style type="text/css">@font-face { font-family: feedback-iconfont; src: url("//at.alicdn.com/t/font_1031158_u69w8yhxdu.woff2?t=1630033759944") format("woff2"), url("//at.alicdn.com/t/font_1031158_u69w8yhxdu.woff?t=1630033759944") format("woff"), url("//at.alicdn.com/t/font_1031158_u69w8yhxdu.ttf?t=1630033759944") format("truetype"); }
</style></defs><path d="M512.83 618.83c-71.47 0-138.73-26.8-189.39-75.46-51.01-49-79.1-114.24-79.1-183.71s28.09-134.71 79.1-183.71c50.66-48.66 117.92-75.46 189.39-75.46s138.73 26.8 189.39 75.46c51.01 49 79.1 114.24 79.1 183.71s-28.09 134.71-79.1 183.71c-50.65 48.66-117.91 75.46-189.39 75.46z m0-454.33c-112.76 0-204.49 87.55-204.49 195.17s91.73 195.17 204.49 195.17 204.49-87.55 204.49-195.17S625.59 164.5 512.83 164.5z" p-id="6224"></path><path d="M139.16 925.18c-1.72 0-3.47-0.14-5.22-0.43-17.44-2.86-29.26-19.32-26.4-36.76 15.13-92.17 64.1-176.6 137.91-237.73 74.29-61.54 169.23-95.43 267.33-95.43 97.88 0 192.67 33.76 266.89 95.07 73.72 60.89 122.78 145.03 138.16 236.93 2.92 17.43-8.85 33.93-26.28 36.84-17.44 2.92-33.93-8.85-36.84-26.28-27-161.41-170.8-278.56-341.92-278.56-171.63 0-315.5 117.56-342.08 279.53-2.59 15.68-16.16 26.82-31.55 26.82z" p-id="6225"></path></svg>