<?xml version="1.0" standalone="no"?><!DOCTYPE svg PUBLIC "-//W3C//DTD SVG 1.1//EN" "http://www.w3.org/Graphics/SVG/1.1/DTD/svg11.dtd"><svg t="1651046426490" class="icon" viewBox="0 0 1024 1024" version="1.1" xmlns="http://www.w3.org/2000/svg" p-id="5315" xmlns:xlink="http://www.w3.org/1999/xlink" width="128" height="128"><defs><style type="text/css">@font-face { font-family: feedback-iconfont; src: url("//at.alicdn.com/t/font_1031158_u69w8yhxdu.woff2?t=1630033759944") format("woff2"), url("//at.alicdn.com/t/font_1031158_u69w8yhxdu.woff?t=1630033759944") format("woff"), url("//at.alicdn.com/t/font_1031158_u69w8yhxdu.ttf?t=1630033759944") format("truetype"); }
</style></defs><path d="M827.29 129.29v766.93H193.3V129.29h633.99m32-64H161.3c-17.67 0-32 14.33-32 32v830.93c0 17.67 14.33 32 32 32h697.99c17.67 0 32-14.33 32-32V97.29c0-17.67-14.33-32-32-32z" p-id="5316"></path><path d="M483 259.89H282.11c-17.67 0-32 14.33-32 32v5.67c0 17.67 14.33 32 32 32H483c17.67 0 32-14.33 32-32v-5.67c0-17.68-14.33-32-32-32zM611 480.33H282.11c-17.67 0-32 14.33-32 32V518c0 17.67 14.33 32 32 32H611c17.67 0 32-14.33 32-32v-5.67c0-17.67-14.33-32-32-32zM735.44 700.77H282.11c-17.67 0-32 14.33-32 32v5.67c0 17.67 14.33 32 32 32h453.33c17.67 0 32-14.33 32-32v-5.67c0-17.67-14.32-32-32-32z" p-id="5317"></path></svg>