<?xml version="1.0" standalone="no"?><!DOCTYPE svg PUBLIC "-//W3C//DTD SVG 1.1//EN" "http://www.w3.org/Graphics/SVG/1.1/DTD/svg11.dtd"><svg t="1662364867776" class="icon" viewBox="0 0 1024 1024" version="1.1" xmlns="http://www.w3.org/2000/svg" p-id="3558" xmlns:xlink="http://www.w3.org/1999/xlink" width="128" height="128"><path d="M892.5 924.7H163.6c-35.3 0-64.1-28.7-64.1-64.1V131.7c0-17.7 14.3-32 32-32s32 14.3 32 32v728.9s0 0.1 0.1 0.1h728.9c17.7 0 32 14.3 32 32s-14.3 32-32 32z" p-id="3559"></path><path d="M863.1 98.3H643.7c-17.7 0-32 14.3-32 32s14.3 32 32 32h172.8L352.6 624.6c-12.5 12.5-12.6 32.7-0.1 45.3 6.3 6.3 14.5 9.4 22.7 9.4s16.3-3.1 22.6-9.3l465.3-463.7v175.4c0 17.7 14.3 32 32 32s32-14.3 32-32V162.3c0-35.3-28.7-64-64-64z" p-id="3560"></path></svg>