<svg id="icon_onnull_606266" xmlns="http://www.w3.org/2000/svg" width="48" height="48" viewBox="0 0 48 48">
  <rect id="矩形_35" data-name="矩形 35" width="48" height="48" fill="rgba(239,224,224,0)"/>
  <path id="路径_67" data-name="路径 67" d="M39,6H9A3,3,0,0,0,6,9V39a3,3,0,0,0,3,3H39a3,3,0,0,0,3-3V9A3,3,0,0,0,39,6Z" fill="#606266" stroke="#606266" stroke-linejoin="round" stroke-width="3"/>
  <path id="路径_68" data-name="路径 68" d="M24,28.625v-4a6,6,0,1,0-6-6" fill="none" stroke="#fff" stroke-linecap="round" stroke-linejoin="round" stroke-width="3"/>
  <path id="路径_69" data-name="路径 69" d="M24,37.625a2.5,2.5,0,1,0-2.5-2.5A2.5,2.5,0,0,0,24,37.625Z" fill="#fff" fill-rule="evenodd"/>
</svg>
